<svg width="25" height="25" viewBox="0 0 25 25" fill="none" xmlns="http://www.w3.org/2000/svg">
<g clip-path="url(#clip0_1073_16453)">
<path d="M7.92857 14.2143C7.92857 14.0627 7.86832 13.9174 7.76116 13.8103C7.654 13.7031 7.50869 13.6429 7.35714 13.6429H6.21429C6.06273 13.6429 5.91743 13.7031 5.81027 13.8103C5.7031 13.9174 5.64286 14.0627 5.64286 14.2143V19.3571H7.92857V14.2143ZM9.07143 19.9286C9.07143 20.2442 8.81559 20.5 8.5 20.5H5.07143C4.75584 20.5 4.5 20.2442 4.5 19.9286V14.2143C4.5 13.7596 4.68074 13.3237 5.00223 13.0022C5.32372 12.6807 5.75963 12.5 6.21429 12.5H7.35714C7.8118 12.5 8.24771 12.6807 8.5692 13.0022C8.89069 13.3237 9.07143 13.7596 9.07143 14.2143V19.9286Z" fill="#333333"/>
<path d="M19.3573 14.2143C19.3573 14.0627 19.297 13.9174 19.1899 13.8103C19.0827 13.7031 18.9374 13.6429 18.7859 13.6429H17.643C17.4914 13.6429 17.3461 13.7031 17.239 13.8103C17.1318 13.9174 17.0716 14.0627 17.0716 14.2143V19.3571H19.3573V14.2143ZM20.5001 19.9286C20.5001 20.2442 20.2443 20.5 19.9287 20.5H16.5001C16.1845 20.5 15.9287 20.2442 15.9287 19.9286V14.2143C15.9287 13.7596 16.1095 13.3237 16.4309 13.0022C16.7524 12.6807 17.1883 12.5 17.643 12.5H18.7859C19.2405 12.5 19.6764 12.6807 19.9979 13.0022C20.3194 13.3237 20.5001 13.7596 20.5001 14.2143V19.9286Z" fill="#333333"/>
<path d="M16.5001 19.3574C16.8157 19.3574 17.0716 19.6133 17.0716 19.9289C17.0716 20.2444 16.8157 20.5003 16.5001 20.5003H8.50014C8.18455 20.5003 7.92871 20.2444 7.92871 19.9289C7.92871 19.6133 8.18455 19.3574 8.50014 19.3574H16.5001Z" fill="#333333"/>
<path d="M17.0718 13.0718V10.7861C17.0718 10.0284 16.7706 9.30186 16.2348 8.76604C15.699 8.23023 14.9725 7.92899 14.2147 7.92899H10.7861C10.0284 7.92899 9.30186 8.23023 8.76604 8.76604C8.23023 9.30186 7.92899 10.0284 7.92899 10.7861V13.0718C7.92899 13.3874 7.67315 13.6433 7.35756 13.6433C7.04197 13.6433 6.78613 13.3874 6.78613 13.0718V10.7861C6.78613 9.72527 7.20786 8.70815 7.95801 7.95801C8.70815 7.20786 9.72527 6.78613 10.7861 6.78613H14.2147C15.2756 6.78613 16.2927 7.20786 17.0428 7.95801C17.793 8.70815 18.2147 9.72527 18.2147 10.7861V13.0718C18.2147 13.3874 17.9589 13.6433 17.6433 13.6433C17.3277 13.6433 17.0718 13.3874 17.0718 13.0718Z" fill="#333333"/>
<path d="M16.5001 14.7861C16.8157 14.7861 17.0716 15.042 17.0716 15.3576C17.0716 15.6732 16.8157 15.929 16.5001 15.929H8.50014C8.18455 15.929 7.92871 15.6732 7.92871 15.3576C7.92871 15.042 8.18455 14.7861 8.50014 14.7861H16.5001Z" fill="#333333"/>
</g>
<defs>
<clipPath id="clip0_1073_16453">
<rect width="16" height="16" fill="white" transform="translate(4.5 4.5)"/>
</clipPath>
</defs>
</svg>
