<svg width="25" height="25" viewBox="0 0 25 25" fill="none" xmlns="http://www.w3.org/2000/svg">
<path d="M15.5888 8.78586C15.5888 7.05005 14.2065 5.6429 12.5013 5.6429C10.7961 5.6429 9.41376 7.05005 9.41376 8.78586C9.41376 10.5217 10.7961 11.9288 12.5013 11.9288C14.2065 11.9288 15.5888 10.5217 15.5888 8.78586ZM16.7116 8.78586C16.7116 11.1529 14.8266 13.0717 12.5013 13.0717C10.176 13.0717 8.29102 11.1529 8.29102 8.78586C8.29102 6.41885 10.176 4.5 12.5013 4.5C14.8266 4.5 16.7116 6.41885 16.7116 8.78586Z" fill="#333333"/>
<path d="M12.5 14.2051C14.1624 14.2051 15.7827 14.7424 17.1258 15.7397C18.4687 16.737 19.4656 18.143 19.9732 19.7544C20.028 19.9282 19.9978 20.1181 19.8921 20.2656C19.7865 20.4129 19.6184 20.4998 19.4392 20.4999H5.56177C5.38245 20.4999 5.21353 20.413 5.10785 20.2656C5.00235 20.1182 4.97205 19.9281 5.02671 19.7544C5.53438 18.1429 6.53214 16.7371 7.87523 15.7397C9.21822 14.7425 10.8376 14.2052 12.5 14.2051ZM12.5 15.348C11.0755 15.3481 9.68723 15.8082 8.53638 16.6628C7.59818 17.3595 6.8573 18.2893 6.3797 19.357H18.6202C18.1426 18.2893 17.4017 17.3594 16.4635 16.6628C15.3127 15.8082 13.9245 15.348 12.5 15.348Z" fill="#333333"/>
</svg>
