<svg width="18" height="18" viewBox="0 0 18 18" fill="none" xmlns="http://www.w3.org/2000/svg">
<g clip-path="url(#clip0_1120_25134)">
<path d="M18.0006 8.99983C18.0006 8.24991 16.5331 7.64198 14.722 7.64198C13.0231 7.64198 9.46809 8.83755 9.0364 8.98461C9.44591 8.78366 12.805 7.1152 14.0063 5.91393C15.2868 4.63343 15.8947 3.16591 15.3641 2.63596C14.8342 2.10601 13.366 2.71393 12.0855 3.99381C10.8843 5.19507 9.21643 8.55355 9.01484 8.96369C9.16255 8.53136 10.3575 4.97701 10.3575 3.27812C10.3575 1.46766 9.74955 -0.000488281 8.99963 -0.000488281C8.24971 -0.000488281 7.64179 1.46702 7.64179 3.27812C7.64179 4.97764 8.83735 8.53263 8.98442 8.96369C8.78347 8.55482 7.115 5.19507 5.91374 3.99381C4.63323 2.7133 3.16572 2.10538 2.63513 2.63596C2.10518 3.16591 2.7131 4.63406 3.99298 5.91393C5.19424 7.1152 8.55209 8.78303 8.96223 8.98461C8.52927 8.83691 4.97554 7.64198 3.27665 7.64198C1.46619 7.64198 -0.00195312 8.24991 -0.00195312 8.99983C-0.00195312 9.74975 1.46556 10.3577 3.27665 10.3577C4.97744 10.3577 8.53687 9.16021 8.96286 9.01441C8.55843 9.21282 5.19488 10.8832 3.99234 12.0857C2.71183 13.3662 2.10391 14.8337 2.6345 15.3637C3.16445 15.8936 4.63259 15.2857 5.9131 14.0059C7.11374 12.8052 8.78093 9.44927 8.98378 9.0366C8.83481 9.47273 7.64115 13.0233 7.64115 14.7215C7.64115 16.532 8.24908 18.0001 8.999 18.0001C9.74892 18.0001 10.3568 16.5326 10.3568 14.7215C10.3568 13.0239 9.16318 9.47336 9.01421 9.0366C9.21706 9.44991 10.8843 12.8052 12.0849 14.0059C13.3654 15.2864 14.8329 15.8943 15.3635 15.3637C15.8935 14.8337 15.2855 13.3656 14.005 12.0857C12.8031 10.8838 9.44337 9.21536 9.03513 9.01504C9.46556 9.16211 13.0212 10.3577 14.7207 10.3577C16.5312 10.3577 17.9993 9.74975 17.9993 8.99983H18.0006Z" fill="#AA8163"/>
</g>
<defs>
<clipPath id="clip0_1120_25134">
<rect width="18" height="18" fill="white"/>
</clipPath>
</defs>
</svg>
