<svg width="40" height="40" viewBox="0 0 40 40" fill="none" xmlns="http://www.w3.org/2000/svg">
<path d="M31.0507 7.05798C31.5714 6.53731 32.4157 6.53731 32.9364 7.05798C33.4568 7.57869 33.457 8.42312 32.9364 8.94372L21.8817 19.9974L32.9423 31.059C33.463 31.5797 33.463 32.424 32.9423 32.9447C32.4216 33.4653 31.5772 33.4654 31.0565 32.9447L19.996 21.8842L8.93642 32.9447C8.41575 33.4654 7.5714 33.4653 7.05068 32.9447C6.52997 32.424 6.53 31.5797 7.05068 31.059L18.1103 19.9974L7.05654 8.94372C6.53597 8.42312 6.53616 7.57869 7.05654 7.05798C7.57723 6.53732 8.42159 6.53733 8.94228 7.05798L19.996 18.1117L31.0507 7.05798Z" fill="#333333"/>
</svg>
