<svg width="27" height="28" viewBox="0 0 27 28" fill="none" xmlns="http://www.w3.org/2000/svg">
<g clip-path="url(#clip0_1121_25327)">
<path fill-rule="evenodd" clip-rule="evenodd" d="M14.1135 28C14.3392 28 14.5519 27.912 14.7115 27.7527L14.7517 27.7126C14.9112 27.5534 14.9994 27.3411 14.9994 27.1159C14.9994 26.8906 14.9112 26.6783 14.7517 26.5191L3.07408 14.8647H26.1271C26.3605 14.8647 26.5797 14.7741 26.7445 14.6097C26.9066 14.4479 27 14.2227 27 13.9935C27 13.7644 26.9092 13.5417 26.7445 13.3773C26.5797 13.2129 26.3605 13.1223 26.1271 13.1223H3.07408L14.7322 1.48738C14.897 1.32298 14.9877 1.10421 14.9877 0.871197C14.9877 0.638188 14.897 0.419417 14.7322 0.255016C14.5675 0.0906149 14.3483 0 14.1148 0C13.8813 0 13.6621 0.0906149 13.4974 0.255016L0.189372 13.5366C0.0674464 13.6583 -5.96598e-07 13.8214 -5.96598e-07 13.9935C-5.96598e-07 14.1657 0.0674464 14.3288 0.189372 14.4505L13.5182 27.7527C13.6777 27.912 13.8904 28 14.1161 28H14.1135Z" fill="white"/>
</g>
<defs>
<clipPath id="clip0_1121_25327">
<rect width="27" height="28" fill="white"/>
</clipPath>
</defs>
</svg>
