<svg width="18" height="18" viewBox="0 0 18 18" fill="none" xmlns="http://www.w3.org/2000/svg">
<path d="M15.6587 4.75182C15.9372 4.47335 16.3877 4.47335 16.6661 4.75182C16.9446 5.03029 16.9446 5.48075 16.6661 5.75922L9.35785 13.0687L9.35669 13.0675C9.23975 13.1878 9.10111 13.2851 8.947 13.3519C8.78612 13.4215 8.6128 13.4575 8.4375 13.4575C8.2622 13.4575 8.08888 13.4215 7.928 13.3519C7.77364 13.285 7.6342 13.1881 7.51714 13.0675V13.0687L0.208854 5.75922C-0.069618 5.48075 -0.069618 5.03029 0.208854 4.75182C0.487326 4.47335 0.937782 4.47335 1.21625 4.75182L8.4375 11.9719L15.6587 4.75182Z" fill="#212121"/>
</svg>
