<svg width="27" height="28" viewBox="0 0 27 28" fill="none" xmlns="http://www.w3.org/2000/svg">
<g clip-path="url(#clip0_1121_25328)">
<path fill-rule="evenodd" clip-rule="evenodd" d="M12.8865 28C12.6608 28 12.4481 27.912 12.2885 27.7527L12.2483 27.7126C12.0888 27.5534 12.0006 27.3411 12.0006 27.1159C12.0006 26.8906 12.0888 26.6783 12.2483 26.5191L23.9259 14.8647H0.872934C0.63946 14.8647 0.420254 14.7741 0.255525 14.6097C0.0933897 14.4479 0 14.2227 0 13.9935C0 13.7644 0.0907955 13.5417 0.255525 13.3773C0.420254 13.2129 0.63946 13.1223 0.872934 13.1223H23.9259L12.2678 1.48738C12.103 1.32298 12.0123 1.10421 12.0123 0.871197C12.0123 0.638188 12.103 0.419417 12.2678 0.255016C12.4325 0.0906149 12.6517 0 12.8852 0C13.1187 0 13.3379 0.0906149 13.5026 0.255016L26.8106 13.5366C26.9326 13.6583 27 13.8214 27 13.9935C27 14.1657 26.9326 14.3288 26.8106 14.4505L13.4818 27.7527C13.3223 27.912 13.1096 28 12.8839 28H12.8865Z" fill="white"/>
</g>
<defs>
<clipPath id="clip0_1121_25328">
<rect width="27" height="28" fill="white"/>
</clipPath>
</defs>
</svg>
