<svg width="18" height="18" viewBox="0 0 18 18" fill="none" xmlns="http://www.w3.org/2000/svg">
<g clip-path="url(#clip0_946_35150)">
<path d="M0 16.0713V4.49986C0 3.98837 0.203334 3.49798 0.565011 3.1363C0.926688 2.77462 1.41708 2.57129 1.92857 2.57129C2.28361 2.57129 2.57143 2.85911 2.57143 3.21415C2.57143 3.56919 2.28361 3.857 1.92857 3.857C1.75807 3.857 1.59461 3.92478 1.47405 4.04534C1.35349 4.1659 1.28571 4.32936 1.28571 4.49986V16.0713C1.28571 16.2418 1.35349 16.4052 1.47405 16.5258C1.59461 16.6464 1.75808 16.7141 1.92857 16.7141H16.0714C16.2419 16.7141 16.4054 16.6464 16.5259 16.5258C16.6465 16.4052 16.7143 16.2418 16.7143 16.0713V4.49986C16.7143 4.32936 16.6465 4.1659 16.5259 4.04534C16.4054 3.92478 16.2419 3.857 16.0714 3.857H13.5C13.145 3.857 12.8571 3.56919 12.8571 3.21415C12.8571 2.85911 13.145 2.57129 13.5 2.57129H16.0714C16.5829 2.57129 17.0733 2.77462 17.435 3.1363C17.7967 3.49798 18 3.98837 18 4.49986V16.0713C18 16.5828 17.7967 17.0732 17.435 17.4348C17.0733 17.7965 16.5829 17.9999 16.0714 17.9999H1.92857C1.41708 17.9999 0.926688 17.7965 0.565011 17.4348C0.203334 17.0732 0 16.5828 0 16.0713Z" fill="#212121"/>
<path d="M17.3571 7.71387C17.7122 7.71387 18 8.00168 18 8.35672C18 8.71176 17.7122 8.99958 17.3571 8.99958H0.642857C0.287817 8.99958 0 8.71176 0 8.35672C0 8.00168 0.287817 7.71387 0.642857 7.71387H17.3571Z" fill="#212121"/>
<path d="M3.85742 5.78571V0.642857C3.85742 0.287817 4.14524 0 4.50028 0C4.85532 0 5.14314 0.287817 5.14314 0.642857V5.78571C5.14314 6.14075 4.85532 6.42857 4.50028 6.42857C4.14524 6.42857 3.85742 6.14075 3.85742 5.78571Z" fill="#212121"/>
<path d="M12.8574 5.78571V0.642857C12.8574 0.287817 13.1452 0 13.5003 0C13.8553 0 14.1431 0.287817 14.1431 0.642857V5.78571C14.1431 6.14075 13.8553 6.42857 13.5003 6.42857C13.1452 6.42857 12.8574 6.14075 12.8574 5.78571Z" fill="#212121"/>
<path d="M10.9289 2.57129C11.2839 2.57129 11.5717 2.85911 11.5717 3.21415C11.5717 3.56919 11.2839 3.857 10.9289 3.857H4.50028C4.14524 3.857 3.85742 3.56919 3.85742 3.21415C3.85742 2.85911 4.14524 2.57129 4.50028 2.57129H10.9289Z" fill="#212121"/>
</g>
<defs>
<clipPath id="clip0_946_35150">
<rect width="18" height="18" fill="white"/>
</clipPath>
</defs>
</svg>
