<svg width="18" height="18" viewBox="0 0 18 18" fill="none" xmlns="http://www.w3.org/2000/svg">
<g clip-path="url(#clip0_946_35175)">
<path d="M8.4375 17.4089V0.694336C8.4375 0.383676 8.68934 0.131836 9 0.131836C9.31066 0.131836 9.5625 0.383676 9.5625 0.694336V17.4089C9.56233 17.7195 9.31056 17.9714 9 17.9714C8.68944 17.9714 8.43767 17.7195 8.4375 17.4089Z" fill="#212121"/>
<path d="M17.3572 8.4375C17.6677 8.43767 17.9197 8.68944 17.9197 9C17.9197 9.31056 17.6677 9.56233 17.3572 9.5625H0.642578C0.331918 9.5625 0.0800781 9.31066 0.0800781 9C0.0800781 8.68934 0.331918 8.4375 0.642578 8.4375H17.3572Z" fill="#212121"/>
</g>
<defs>
<clipPath id="clip0_946_35175">
<rect width="18" height="18" fill="white"/>
</clipPath>
</defs>
</svg>
