<svg width="52" height="52" viewBox="0 0 52 52" fill="none" xmlns="http://www.w3.org/2000/svg">
<rect x="0.5" y="0.5" width="51" height="51" rx="3.5" fill="#F7F7F7"/>
<rect x="0.5" y="0.5" width="51" height="51" rx="3.5" stroke="#CCCCCC"/>
<path d="M31.1978 16C31.6395 16 31.9975 16.3581 31.9976 16.7998V21H34.2017C35.1957 21 36.0014 21.8058 36.0015 22.7998V32.2002C36.0015 32.642 35.6435 33 35.2017 33H31.9976V35.2002C31.9976 35.642 31.6396 36 31.1978 36H20.9976C20.5558 35.9999 20.1978 35.642 20.1978 35.2002V33H16.7983C16.5862 32.9999 16.3829 32.9157 16.2329 32.7656C16.0829 32.6156 15.9985 32.4123 15.9985 32.2002L16.0015 22.7998C16.0018 21.8059 16.8074 21 17.8013 21H19.9985V16.7998C19.9986 16.3581 20.3567 16.0001 20.7983 16H31.1978ZM21.7974 34.4004H30.3979V28.7998H21.7974V34.4004ZM17.8013 22.5996C17.6909 22.5997 17.6012 22.6895 17.6011 22.7998L17.5991 31.4004H20.1978V28C20.1979 27.5583 20.5559 27.2003 20.9976 27.2002H31.1978C31.4099 27.2002 31.6132 27.2846 31.7632 27.4346C31.9132 27.5846 31.9975 27.7879 31.9976 28V31.4004H34.4019V22.7998C34.4018 22.6894 34.312 22.5996 34.2017 22.5996H17.8013ZM21.5981 21H30.3979V17.5996H21.5981V21Z" fill="#333333"/>
</svg>
