<svg width="52" height="52" viewBox="0 0 52 52" fill="none" xmlns="http://www.w3.org/2000/svg">
<rect x="0.5" y="0.5" width="51" height="51" rx="3.5" fill="#F7F7F7"/>
<rect x="0.5" y="0.5" width="51" height="51" rx="3.5" stroke="#CCCCCC"/>
<path d="M31.6992 17C33.5217 17 34.9989 18.4774 34.999 20.2998C34.999 22.1223 33.5218 23.5996 31.6992 23.5996C30.6501 23.5995 29.7157 23.1099 29.1113 22.3467L23.5283 25.3096C23.5757 25.5322 23.6006 25.7632 23.6006 26C23.6006 26.3143 23.5557 26.6182 23.4736 26.9062L28.9805 29.8291C29.5756 28.9658 30.5714 28.4005 31.6992 28.4004C33.5218 28.4004 34.999 29.8777 34.999 31.7002C34.9989 33.5226 33.5217 35 31.6992 35C29.8769 34.9999 28.3996 33.5225 28.3994 31.7002C28.3994 31.5792 28.4053 31.4594 28.418 31.3418L22.6729 28.293C22.0728 28.9136 21.2322 29.2998 20.3008 29.2998C18.4783 29.2997 17.001 27.8225 17.001 26C17.0011 24.1776 18.4784 22.7003 20.3008 22.7002C21.3127 22.7002 22.2179 23.156 22.8232 23.873L28.4521 20.8848C28.4182 20.6949 28.3994 20.4994 28.3994 20.2998C28.3995 18.4774 29.8768 17.0001 31.6992 17ZM31.6992 30C30.7604 30.0001 29.999 30.7614 29.999 31.7002C29.9992 32.6389 30.7605 33.4003 31.6992 33.4004C32.638 33.4004 33.3993 32.6389 33.3994 31.7002C33.3994 30.7613 32.6381 30 31.6992 30ZM20.3008 24.2998C19.3621 24.2999 18.6007 25.0613 18.6006 26C18.6006 26.9388 19.362 27.7001 20.3008 27.7002C21.2397 27.7002 22.001 26.9389 22.001 26C22.0009 25.0612 21.2396 24.2998 20.3008 24.2998ZM31.6992 18.5996C30.7605 18.5997 29.9991 19.3611 29.999 20.2998C29.999 21.2386 30.7604 21.9999 31.6992 22C32.6381 22 33.3994 21.2387 33.3994 20.2998C33.3993 19.361 32.638 18.5996 31.6992 18.5996Z" fill="#333333"/>
</svg>
