<svg width="14" height="14" viewBox="0 0 14 14" fill="none" xmlns="http://www.w3.org/2000/svg">
<path d="M13.1464 3.49654C13.3417 3.30128 13.6582 3.30128 13.8535 3.49654C14.0487 3.69181 14.0487 4.00831 13.8535 4.20358L7.70309 10.354L7.70211 10.353C7.6128 10.445 7.50737 10.5197 7.38961 10.5708C7.26671 10.624 7.13389 10.6518 6.99996 10.6518C6.86603 10.6518 6.73321 10.624 6.61031 10.5708C6.49234 10.5196 6.38624 10.4452 6.29684 10.353V10.354L0.146447 4.20358C-0.0488155 4.00831 -0.0488155 3.69181 0.146447 3.49654C0.341709 3.30128 0.658216 3.30128 0.853478 3.49654L6.99996 9.64303L13.1464 3.49654Z" fill="white"/>
</svg>
