<svg width="123" height="40" viewBox="0 0 123 40" fill="none" xmlns="http://www.w3.org/2000/svg">
<g opacity="0.7">
<path d="M45.3005 6.6809C45.3576 4.99289 44.8377 3.65655 44.8884 2.08363C44.8947 1.87263 43.5188 0.306103 42.9545 0.286921C42.7579 0.286921 40.9889 0.536286 40.767 0.536286C40.2343 0.523499 37.8566 0.280527 36.4997 0.286921C35.872 0.286921 34.2741 0.159042 33.3103 0.07592C33.1391 0.063132 30.6282 0.370043 30.4253 0.357255C28.9543 0.306103 26.9316 0.069526 26.361 0.00558624C25.8157 -0.0583536 22.0049 0.446771 21.1489 0.491529C20.1661 0.549074 19.3989 0.363649 18.4668 0.222982C17.4397 0.069526 10.1225 0.715318 9.9323 0.715318C9.70404 0.715318 9.1207 0.983865 9.13338 1.22044C9.14606 1.55932 8.65149 3.22176 8.82269 3.61818C9.26019 4.63483 9.24117 6.6809 9.20947 7.75509C9.17142 9.11701 9.38067 10.3702 9.58991 11.892C9.69136 12.6273 9.70404 14.5199 9.81183 15.4534C9.87524 15.9777 9.81817 16.8665 9.81183 17.3844C9.79915 19.4369 10.0084 21.061 10.224 23.1326C10.3381 24.2899 10.782 28.3693 10.8073 29.5522C10.8073 29.7696 10.8454 29.9102 10.8961 30.0253L11.0736 30.9844C11.0736 30.9844 10.7693 31.3553 11.3146 32.1481C11.3146 32.1481 11.4984 32.877 12.4686 33.0625L13.0139 32.877L14.0284 32.9538L14.4659 33.0625L14.7639 32.9921C16.051 33.088 18.1308 33.3502 18.5112 33.3502C18.9551 33.3502 20.8002 33.152 21.2694 33.152C21.7386 33.152 24.9407 33.2671 25.4162 33.2671C25.8664 33.2671 27.6798 33.1839 28.13 33.1839C28.5992 33.1839 35.0413 33.3949 35.4852 33.4013C35.9544 33.4077 39.6447 33.3758 40.0441 33.3822C40.4119 33.3885 41.4517 32.8834 42.1239 32.8706C42.1239 32.7555 43.0876 31.2849 43.1003 31.1315C43.2969 29.5713 43.0179 29.9742 43.2335 28.7721C43.5632 26.8795 42.9481 24.5265 43.392 22.928C43.5061 22.5188 44.3177 15.8371 44.3621 15.4407C44.5967 13.2731 44.9581 12.8511 44.9391 10.6835C44.9391 10.4533 44.8757 8.91879 44.882 8.66303C44.8947 8.39449 45.3005 6.93027 45.3069 6.66811L45.3005 6.6809Z" fill="white"/>
<path d="M19.6524 4.60912C19.2276 4.51961 18.8028 4.43009 18.3779 4.34058C18.3906 4.82652 18.4033 5.31885 18.4096 5.8048C18.8091 5.82398 19.2086 5.84956 19.6144 5.88152C19.6334 5.45313 19.6461 5.03113 19.6587 4.60273L19.6524 4.60912Z" fill="#231815"/>
<path d="M11.8599 3.21525C11.9613 3.80989 12.0628 4.41092 12.1579 5.00556C12.6651 4.9672 13.1724 4.92883 13.6733 4.90326C13.5655 4.31501 13.464 3.72037 13.3563 3.12573C12.8553 3.1577 12.3544 3.18328 11.8535 3.21525H11.8599Z" fill="#231815"/>
<path d="M15.3154 8.3689C15.3725 8.81647 15.4296 9.25127 15.4803 9.69245C15.8988 9.68606 16.3172 9.67966 16.7294 9.67966C16.666 9.23848 16.6089 8.80369 16.5455 8.3689C16.1397 8.3689 15.7212 8.3689 15.3091 8.3689H15.3154Z" fill="#231815"/>
<path d="M41.0519 3.30469C40.9505 3.83539 40.8681 4.36609 40.7729 4.89679C41.2675 5.02467 41.7494 5.15255 42.2376 5.29322C42.3201 4.76251 42.4088 4.23181 42.4913 3.70751C42.0094 3.57323 41.5338 3.43896 41.0519 3.30469Z" fill="#231815"/>
<path d="M35.7197 5.25517C35.7641 5.63242 35.8148 6.00966 35.8656 6.38691C36.2206 6.38051 36.5821 6.37412 36.9371 6.37412C36.8864 5.99687 36.8357 5.61963 36.785 5.24878C36.4299 5.24878 36.0748 5.24878 35.7261 5.25517H35.7197Z" fill="#231815"/>
<path d="M40.0884 8.9893C40.1328 9.36655 40.1835 9.74379 40.2279 10.121C40.5893 10.121 40.938 10.1082 41.2994 10.1082C41.2487 9.7374 41.198 9.36015 41.1473 8.98291C40.7922 8.98291 40.4371 8.98291 40.0884 8.98291V8.9893Z" fill="#231815"/>
<path d="M14.5229 14.9675C14.561 15.0123 14.6054 15.0507 14.6434 15.0826Z" fill="white"/>
<path d="M23.1333 10.3766C23.0572 10.0569 22.3344 10.3894 21.8652 10.4661C21.5798 10.5109 21.1931 10.6771 20.9267 10.7091C20.5907 10.741 20.0517 10.9009 19.8805 11.2398C19.7791 11.4444 20.0771 11.5211 20.2102 11.5914C20.4512 11.7193 20.7048 11.86 20.7999 12.1349C20.895 12.3907 20.9014 12.704 20.9521 12.9725C21.0092 13.2922 21.0536 13.6183 21.1233 13.938C21.1804 14.2386 21.0979 14.5583 21.1677 14.8396C21.2438 15.1337 21.434 15.6388 21.5101 15.869C21.6432 16.2718 21.6179 16.291 21.7447 16.3294C22.1695 16.4764 22.6197 16.3614 23.1587 16.4125C23.4376 16.4381 23.7103 16.5979 24.0781 16.6363C24.3824 16.6683 25.5047 16.713 25.8281 16.745C26.1388 16.777 26.4621 16.7834 26.7919 16.8153C27.1026 16.8473 27.4323 16.7514 27.7556 16.7834C28.0854 16.8153 28.4214 16.8473 28.7575 16.8793C29.0808 16.9112 29.4106 16.9176 29.7276 16.956C30.0446 16.988 30.3363 17.167 30.6406 17.199C30.964 17.2309 31.2937 17.1286 31.6044 17.1606C31.7629 17.1798 31.9215 17.1926 32.08 17.2118C32.4541 17.2501 32.8409 17.3141 33.215 17.3077C33.3988 17.3077 33.5383 17.3972 33.7095 17.4547C33.9188 17.5315 34.1343 17.5826 34.3563 17.621C34.5528 17.6465 34.6543 17.7552 34.8128 17.8512C34.984 17.9535 35.1172 17.9023 35.244 17.7616C35.3074 17.6913 35.3391 17.6018 35.3961 17.5187C35.4469 17.4419 35.523 17.3716 35.5673 17.2821C35.6117 17.1926 35.6054 17.0903 35.6181 16.9944C35.6624 16.6938 35.7005 16.3997 35.7195 16.0928C35.7322 15.9266 35.7005 15.7923 35.7449 15.626C35.7956 15.4662 35.8654 15.3063 35.878 15.1401C35.8971 14.846 35.8971 14.5455 35.9161 14.2577C35.9414 13.9252 35.9161 13.6247 35.9351 13.3498C35.9731 12.8511 36.2014 12.314 35.9541 12.2884C35.8971 12.2884 35.6878 12.2692 35.263 12.103C35.0094 12.0071 34.724 12.0326 34.4577 11.9879C34.3246 11.9623 34.2168 11.892 34.09 11.8472C33.9441 11.7961 33.7729 11.8728 33.6208 11.8792C33.4686 11.8792 33.3608 11.9879 33.2213 12.039C33.1262 12.0774 32.993 12.0774 32.955 12.2053C32.9169 12.3459 33.0881 12.4099 33.1515 12.4994C33.2276 12.6017 33.234 12.7807 33.2657 12.9086C33.3291 13.2027 33.3988 13.4969 33.4559 13.7974C33.4749 13.8933 33.5003 13.9892 33.5003 14.0851C33.5066 14.3728 33.4876 14.5071 33.4813 14.7373C33.4622 15.1017 33.0628 14.8843 33.0121 15.0058C32.974 15.1081 32.993 15.2552 32.4794 15.2552C31.5347 15.268 30.6343 15.1785 30.2665 15.1337C29.8227 15.0826 29.2837 15.1017 29.3408 14.9035C29.4042 14.6925 28.5482 15.0058 28.2248 14.9803C27.9015 14.9547 27.6035 14.9803 27.2928 14.9483C26.944 14.9163 26.7855 14.9163 26.4812 14.8652C26.1134 14.8076 25.3842 14.9163 25.0101 14.7245C24.8516 14.6478 24.3127 14.5966 24.2746 14.5902C23.8561 14.5135 24.0337 13.9572 23.761 13.2603C23.5898 12.8191 23.7991 12.6017 23.6279 12.1669C23.4567 11.7129 23.463 11.7385 23.3108 11.2781C23.1777 10.8817 23.2284 10.6835 23.146 10.3574L23.1333 10.3766Z" fill="#231815"/>
<path d="M22.7211 22.4294C22.5816 22.1992 22.4421 21.9754 22.3089 21.7452C22.1884 21.5406 22.125 21.2785 21.8904 21.2017C21.6685 21.1378 21.4529 21.0419 21.2817 20.882C21.1676 20.7733 21.1042 20.5943 21.0408 20.4536C20.971 20.2938 21.1232 20.1339 21.1993 19.9869C21.2627 19.8654 21.3578 19.7759 21.4719 19.7055C21.6305 19.616 21.8587 19.5585 22.0363 19.5265C22.3596 19.4754 22.6957 19.5073 23.0191 19.437C23.1586 19.4114 23.3551 19.3219 23.4946 19.3922L23.6278 19.4434C23.8053 19.5393 23.799 19.7503 23.8434 19.9357C23.8941 20.1531 24.078 20.4089 24.1097 20.6327C24.1287 20.7669 24.135 20.9779 24.2555 21.0675C24.3443 21.1314 24.4901 21.0994 24.5916 21.0994C25.0037 21.0994 25.4095 21.0355 25.8153 21.0163C26.2274 21.0035 26.6269 20.9204 27.039 20.8884C27.1659 20.8756 27.2863 20.9268 27.4005 20.8628C27.559 20.7733 27.6921 20.6135 27.8316 20.4856C27.9267 20.3961 27.9711 20.3961 27.9584 20.5431C27.9331 20.7094 28.472 20.7222 28.5481 20.7094C28.8588 20.671 29.1695 20.6135 29.4802 20.5623C29.7402 20.524 30.0192 20.524 30.2664 20.4472C30.4186 20.4025 30.5645 20.313 30.6342 20.1595C30.7293 19.9421 30.5835 19.7439 30.5645 19.5265C30.5454 19.2196 30.9005 19.1365 31.1288 19.0853C31.2619 19.0597 31.3951 18.9766 31.5346 18.983C31.7185 18.9958 31.9214 19.1173 32.0926 19.2004C32.2955 19.2899 32.4984 19.3858 32.7013 19.4817C32.9676 19.6032 33.4812 19.6736 33.6967 19.8014C34.0138 19.9869 34.1723 20.1211 34.1343 20.2618C34.0899 20.4408 34.0011 20.9076 33.925 21.2273C33.8616 21.4831 33.8489 21.7708 33.7665 22.0074C33.6397 22.3782 33.7411 22.391 33.4368 22.5892C33.0437 22.845 32.8534 22.7171 32.2638 22.7682C31.9848 22.7874 31.3951 22.8514 31.0337 22.8769C30.7293 22.9025 30.444 22.9793 30.1016 23.0048C29.7846 23.0304 29.4612 23.0048 29.1315 23.0304C28.8144 23.056 28.4403 22.9665 28.117 22.992C27.7999 23.0176 27.4766 23.0176 27.1659 23.0368C26.8552 23.0624 26.5508 23.0752 26.2528 23.0943C25.9358 23.1135 25.6187 23.235 25.3271 23.2478C24.9657 23.267 24.6486 23.2798 24.3823 23.2862C23.9385 23.299 23.3044 23.1839 23.2156 23.1583C23.0571 23.1071 22.9683 22.8066 22.7274 22.4166L22.7211 22.4294Z" fill="#231815"/>
<path d="M29.9875 11.5147C29.9177 11.3933 29.8163 11.2782 29.7465 11.1631C29.6387 10.9904 29.4992 10.8626 29.3154 10.7922C29.1505 10.7283 28.9666 10.7794 28.8018 10.7922C28.5925 10.8114 28.2818 10.9009 28.0662 10.8434C27.9775 10.8434 27.6668 10.7666 27.5717 10.7666C27.3878 10.8242 27.4892 10.9137 27.4068 11.2462C27.299 11.7002 27.3815 12.7807 27.28 13.2283C27.1849 13.6375 27.0454 13.8869 26.9503 14.3025C26.8488 14.7181 27.0137 15.3192 26.9439 15.722C26.8615 16.1696 26.8425 16.1568 26.7854 16.6043C26.7284 17.0455 26.4367 17.0072 26.3796 17.4547C26.3226 17.9087 26.443 17.9343 26.3796 18.3883C26.3226 18.8358 26.2782 18.8295 26.2211 19.2706C26.164 19.7118 26.0689 20.6006 26.0119 21.0546C25.9548 21.5021 25.7773 21.4638 25.7202 21.9177C25.6631 22.3653 25.9485 22.4037 25.8914 22.8513C25.8343 23.2988 25.4666 24.1365 25.4095 24.5649C25.3461 25.0572 25.3081 25.492 25.3524 25.9779C25.4349 26.8219 24.9657 27.2631 24.8769 27.9728C24.8262 28.3948 25.1495 28.4396 25.0925 28.8552C25.0417 29.2708 24.6296 29.3348 24.9657 29.6225C25.3651 29.9678 25.4602 29.8399 25.9992 29.8463C26.4747 29.8527 27.1976 29.9997 27.5463 29.7248C27.9014 29.4435 27.6161 29.1174 27.6858 28.689C27.7556 28.2414 27.7175 28.2734 27.7873 27.8322C27.857 27.3974 27.7365 27.3782 27.8063 26.937C27.8697 26.5022 28.1043 25.6454 28.174 25.1979C28.2374 24.7567 28.3199 24.7695 28.3833 24.3283C28.4467 23.8807 28.3579 23.8104 28.4277 23.3628C28.4974 22.9152 28.1296 23.1198 28.1931 22.6786C28.2628 22.2502 28.2565 22.2502 28.3199 21.8218C28.3833 21.3807 28.2628 21.3551 28.3262 20.9203C28.3896 20.4983 28.732 18.9573 28.7954 18.5353C28.8525 18.1517 28.8588 17.9279 28.9286 17.5443C29.0047 17.0903 28.9413 17.1606 29.03 16.7067C29.1188 16.2527 29.1188 16.355 29.2076 15.8946C29.29 15.4534 29.3661 15.3959 29.4485 14.9547C29.5373 14.5007 29.4485 14.456 29.5436 14.002C29.6324 13.5544 29.6958 13.6631 29.7782 13.2155C29.8163 13.0173 29.8543 12.8191 29.8924 12.6209C29.9177 12.4674 29.9558 12.3076 29.9938 12.1605C30.0318 11.9943 30.1016 11.8408 30.0509 11.6682C30.0382 11.617 30.0192 11.5723 29.9875 11.5211V11.5147Z" fill="#231815"/>
<path d="M14.8713 26.6493C14.9791 26.6109 15.1123 26.6237 15.2264 26.6173C15.4166 26.6109 15.5815 26.6493 15.7717 26.6685C16.0253 26.7004 16.2916 26.6493 16.5389 26.6301C17.5661 26.547 18.606 26.5342 19.6395 26.5342C20.2419 26.5342 20.8442 26.5534 21.4402 26.5662C21.7383 26.5725 22.5245 26.6045 22.8352 26.6109C23.1269 26.6109 23.4439 26.5853 23.7419 26.5981C24.0399 26.5981 24.3633 26.6748 24.674 26.6876C24.9657 26.7004 25.2637 26.7772 25.5617 26.7899C25.8597 26.8027 26.107 26.7132 26.4113 26.7196C26.722 26.726 27.0834 26.8475 27.3941 26.8603C27.6858 26.8731 27.9838 26.7516 28.2755 26.7644C28.5798 26.7772 28.8778 26.8411 29.1759 26.8539C29.4802 26.8667 29.8733 26.7196 30.1777 26.7324C30.4694 26.7452 30.6659 26.7708 30.9512 26.7835C31.2493 26.7963 31.5409 26.7324 31.8263 26.7452C32.1179 26.7644 32.4159 26.7324 32.7076 26.7452C33.012 26.7644 33.8362 26.9306 34.1279 26.9434C34.4386 26.9562 34.1977 26.9945 34.4893 27.0137C34.7747 27.0329 35.0537 27.1608 35.32 27.18C35.6116 27.1928 35.897 27.0137 36.1569 27.0265C36.3915 27.0393 36.6135 27.1608 36.8417 27.1544C37.0193 27.1544 37.1841 27.0841 37.3617 27.0841C37.7738 27.0841 38.1986 27.1224 38.6108 27.0969C38.9024 27.0777 39.118 27.0137 39.3907 27.1928C39.8218 27.4741 39.6823 28.0368 39.6823 28.4652C39.6823 28.7145 39.6126 28.9959 39.5809 29.258C39.5302 29.6544 39.5682 29.8399 39.2829 30.0637C38.9215 30.3386 38.9468 30.3258 38.3762 30.3194C38.1099 30.3194 38.0274 29.9933 37.6787 29.9869C36.0682 29.9614 35.1614 29.5713 33.4685 29.7567C32.9295 29.8143 31.7565 29.9997 31.2619 29.9933C30.9512 29.9933 30.6469 30.0892 30.3616 30.0892C30.0382 30.0892 29.7338 29.9933 29.4548 29.9997C29.1251 29.9997 28.8335 29.9422 28.5862 29.9422C28.1297 29.9486 27.7873 29.7312 27.7112 29.7504C26.424 30.0445 25.1369 29.6608 23.8053 29.6672C22.1884 29.6672 21.0281 29.923 19.4049 29.9358C19.0942 29.9358 18.7201 30.2491 18.4348 30.2491C18.1431 30.2491 17.5027 30.1084 17.2491 30.1084C16.9384 30.1084 16.6848 30.102 16.4565 30.102C15.9492 30.102 16.0951 30.2363 15.7971 29.955C15.4293 29.5969 15.5942 29.648 15.4293 29.1173C15.3342 28.8232 15.1186 28.5419 14.9601 28.2733C14.8586 28.1007 14.7508 27.9153 14.6494 27.7362C14.5923 27.6339 14.5543 27.5508 14.5226 27.4485C14.5099 27.4229 14.3958 27.1864 14.4021 27.1736C14.4909 27.0201 14.6431 26.8155 14.8016 26.7196C14.8206 26.7068 14.846 26.694 14.8713 26.6876V26.6493Z" fill="#231815"/>
<path d="M38.9659 17.8896C38.8073 17.7234 38.6678 17.5316 38.4269 17.4804C38.2874 17.4485 38.1606 17.4868 38.0274 17.4804C37.609 17.4485 37.6153 17.538 37.5012 17.896C37.4314 18.107 37.349 18.3052 37.3046 18.5226C37.2349 18.8487 37.1334 19.1429 37.032 19.4562C36.9115 19.827 36.9368 20.2554 36.7656 20.6071C36.5944 20.9524 36.3789 21.2784 36.214 21.6365C35.7004 22.7491 35.7067 23.8936 35.3009 24.987C35.1424 25.3962 35.06 25.3706 34.9015 25.7862C34.743 26.2082 34.8317 26.2338 34.6732 26.6622C34.483 27.1865 33.291 28.51 34.1216 28.6379C34.4133 28.6827 35.8399 28.5804 36.1252 28.6123C36.4867 28.6443 36.8481 28.1584 37.0637 27.8898C37.2539 27.6596 37.3173 27.3271 37.4124 27.0586C37.5075 26.7964 37.647 26.5407 37.7484 26.2594C37.8436 25.9972 37.9957 25.7478 38.0908 25.4793C38.1986 25.198 38.3445 24.9358 38.4459 24.6609C38.541 24.3859 38.6235 24.111 38.7186 23.8488C38.82 23.5675 38.7693 23.2414 38.8644 22.9665C38.9595 22.6979 39.2448 22.4997 39.3273 22.2503C39.4224 21.9754 39.359 21.6621 39.4414 21.4191C39.5429 21.1122 39.8599 20.6199 39.936 20.3897C40.0311 20.0764 40.234 19.7886 40.4052 19.5073C40.4496 19.437 40.5764 19.2835 40.5637 19.2004C40.5383 19.0533 40.1959 18.8999 40.0882 18.7912C39.9867 18.6825 39.9296 18.5674 39.8028 18.4715C39.5429 18.2733 39.1941 18.1454 38.9722 17.9024L38.9659 17.8896Z" fill="#231815"/>
<path d="M39.4037 18.7846C39.2262 18.5289 38.5541 18.2539 38.3638 18.0238C38.0722 17.6593 37.641 17.4547 37.5522 17.6145C37.3303 18.011 37.381 17.9918 37.2225 18.4138C37.2225 18.4138 37.2162 18.4202 37.2162 18.4266C36.785 19.5647 36.151 20.6197 35.6374 21.7259C35.1301 22.8256 35.1364 23.9574 34.7306 25.0379C34.5721 25.4472 34.4897 25.4216 34.3375 25.8244C34.179 26.24 34.2614 26.272 34.1093 26.6876C33.919 27.2055 32.7397 28.5099 33.5576 28.6442C33.843 28.6889 35.2569 28.5802 35.5422 28.6122C35.9037 28.6442 36.2524 28.1646 36.468 27.9025C36.6519 27.6787 36.7153 27.3462 36.8104 27.084C36.9055 26.8283 37.0386 26.5661 37.1401 26.2912C37.2352 26.0354 37.381 25.786 37.4825 25.5175C37.5839 25.2426 37.7298 24.9804 37.8312 24.7055C37.9327 24.4369 38.0024 24.162 38.1039 23.9062C38.2053 23.6249 38.1546 23.2988 38.2561 23.0366C38.3512 22.7681 38.6302 22.5763 38.7126 22.3269C38.8077 22.052 38.7443 21.745 38.8267 21.5085C38.9282 21.208 39.2389 20.7156 39.3149 20.4918C39.4481 20.089 39.949 19.3793 39.949 19.3089C39.949 19.1299 39.6256 19.1299 39.3974 18.7974L39.4037 18.7846Z" fill="#231815"/>
<path d="M19.367 26.579C19.2972 26.3104 19.2148 26.0355 19.1324 25.7477C19.0626 25.4792 19.0753 25.1915 18.9992 24.9101C18.9231 24.648 18.8027 24.3922 18.7266 24.1301C18.6505 23.8487 18.6632 23.5546 18.5807 23.2797C18.1115 21.63 17.5853 19.8269 17.0844 18.1453C16.9258 17.6274 16.9956 17.346 16.5771 17.1414C16.2918 16.9944 16.0064 17.167 15.7084 17.0775C15.4168 16.9944 15.1568 16.9688 14.8461 16.9432C14.5861 16.924 14.3262 16.956 14.0725 16.9113C13.8316 16.8665 13.6223 16.745 13.3687 16.7898C13.1912 16.8217 13.1214 17.0072 12.9566 17.0775C12.8107 17.135 12.5761 17.2054 12.6395 17.41C12.7093 17.6338 13.5716 18.1005 13.6604 18.3883C13.7365 18.6248 13.8443 18.8742 13.9394 19.1428C14.0282 19.4049 14.3896 20.5366 14.4974 20.818C14.5925 21.0929 14.9285 21.63 15.03 21.905C15.1251 22.1735 15.3914 22.9664 15.4928 23.2349C15.5943 23.5162 15.9113 23.8743 16.0128 24.1492C16.1142 24.4178 16.2537 25.4344 16.3552 25.703C16.5391 26.1889 16.818 27.6404 17.5155 27.6915C17.8135 27.7171 18.8724 27.6212 19.1768 27.6723C19.4938 27.7299 19.4748 26.9754 19.3733 26.5662L19.367 26.579Z" fill="#231815"/>
<path d="M18.6822 26.9563C18.6125 26.6878 18.5237 26.4128 18.4476 26.1251C18.3778 25.8565 18.3905 25.5624 18.3144 25.2875C18.2447 25.0253 18.1179 24.7696 18.0418 24.5074C17.9657 24.2325 17.9784 23.932 17.896 23.657C17.4267 22.0074 16.9005 20.1979 16.3996 18.5226C16.241 17.9983 16.3108 17.7234 15.8923 17.5188C15.4485 17.295 15.4675 17.5699 14.9793 17.4612C14.4276 17.3334 14.4657 17.474 13.914 17.3462C13.3877 17.2247 12.8424 17.2055 12.5888 17.295C12.6078 17.4549 12.5064 17.6786 12.6078 18.0239C12.6712 18.2477 12.8868 18.4779 12.9819 18.7656C13.058 18.9958 13.1658 19.2516 13.2609 19.5201C13.3497 19.7823 13.7111 20.914 13.8126 21.2017C13.9077 21.4703 14.2437 22.0138 14.3452 22.2887C14.4403 22.5572 14.7129 23.3565 14.8081 23.6186C14.9095 23.8936 15.2265 24.258 15.328 24.5266C15.4294 24.7951 15.5689 25.8182 15.6704 26.0803C15.8543 26.5663 16.1333 28.0177 16.8307 28.0689C17.1287 28.088 18.1813 27.9985 18.492 28.0497C18.809 28.1072 18.79 27.3463 18.6885 26.9435L18.6822 26.9563Z" fill="#231815"/>
<path d="M14.3768 27.1927C14.4339 27.1096 14.6558 27.2759 15.1884 27.2183C17.2872 27.0201 18.8597 27.0329 20.9457 27.084C21.2437 27.0904 22.0237 27.1224 22.3343 27.1288C22.626 27.1352 22.9367 27.1032 23.2411 27.116C23.5454 27.1224 23.8624 27.1927 24.1731 27.2055C24.4648 27.2183 24.7628 27.295 25.0545 27.3078C25.3525 27.3142 25.6061 27.2311 25.9041 27.2375C26.2085 27.2439 26.5699 27.359 26.8806 27.3782C27.1723 27.391 27.4703 27.2695 27.762 27.2759C28.06 27.2886 28.3643 27.359 28.6623 27.3718C28.9667 27.3782 29.3598 27.2375 29.6578 27.2439C29.9495 27.2567 30.1524 27.2823 30.4314 27.2886C30.7294 27.3014 31.0211 27.2375 31.3064 27.2503C31.5981 27.2631 31.8961 27.2311 32.1877 27.2503C32.4921 27.2695 33.3164 27.4357 33.608 27.4485C33.9124 27.4613 33.6778 27.4997 33.9631 27.5124C34.2548 27.5316 34.5274 27.6595 34.8001 27.6723C35.0918 27.6851 35.3771 27.5124 35.6371 27.5252C35.9287 27.538 36.2014 27.7362 36.4613 27.749C36.8481 27.7746 37.2476 27.749 37.6407 27.7618C37.888 27.7618 38.1353 27.7618 38.3826 27.749C38.5601 27.7362 38.7693 27.6851 38.9215 27.8066C39.3907 28.1902 39.1308 29.2452 39.0674 29.7439C39.0166 30.1404 39.1625 30.0892 38.8771 30.3066C38.5157 30.5815 38.6552 30.4984 38.0846 30.492C37.8246 30.492 37.5139 30.4792 37.1652 30.4728C35.5483 30.4537 34.6479 30.0572 32.955 30.2427C32.4223 30.3002 31.243 30.4856 30.7547 30.4792C30.4441 30.4792 30.1397 30.5688 29.848 30.5752C29.531 30.5752 29.2203 30.4856 28.9413 30.4856C28.6116 30.4856 28.3199 30.4281 28.0726 30.4281C27.6225 30.4345 27.2801 30.2171 27.1976 30.2363C25.9105 30.5304 24.6233 30.1468 23.2981 30.1531C22.3343 30.1531 21.3896 30.2682 20.4321 30.345C19.9946 30.3769 19.5571 30.3833 19.1386 30.4728C18.6821 30.5688 18.2002 30.4601 17.7374 30.556C17.5852 30.5879 17.452 30.6519 17.2935 30.6519C17.1096 30.6519 16.9194 30.5879 16.7355 30.5879C16.4248 30.5879 16.1776 30.5752 15.943 30.5752C15.4357 30.5752 15.5815 30.7158 15.2835 30.4281C14.9158 30.0764 15.0806 30.1212 14.9158 29.5905C14.8207 29.2836 14.8207 28.9191 14.7319 28.6122C14.6241 28.2158 14.231 27.3654 14.3641 27.1863L14.3768 27.1927Z" fill="#231815"/>
<path d="M29.9874 3.70754C29.9874 3.70754 30.0191 3.73311 30.0318 3.7523C30.1713 3.90575 30.2727 4.09757 30.4122 4.25742C30.5834 4.44924 30.7546 4.64106 30.9195 4.83927C31.059 5.00552 31.2872 5.14618 31.4584 5.28046C31.6994 5.46588 31.8262 5.72164 32.0101 5.94543C32.1115 6.06052 32.2193 6.16283 32.2954 6.2971C32.3778 6.45055 32.4666 6.6104 32.5744 6.74468C32.6822 6.87895 32.7773 7.00044 32.7836 7.17307C32.7963 7.37129 32.7012 7.58868 32.5871 7.74214C32.4539 7.90838 32.3842 8.11299 32.2637 8.29202C32.1939 8.38793 32.1242 8.51581 32.0354 8.59254C31.972 8.65008 31.8959 8.65648 31.8198 8.68845C31.4965 8.79715 31.1984 8.96339 30.9765 9.12963C30.539 9.46212 30.4946 9.46212 30.2537 9.50048C29.9113 9.55163 29.2836 9.64115 28.8017 9.67312C28.4276 9.6987 28.231 9.67312 27.8252 9.51327C27.4194 9.35982 27.039 9.21915 26.7346 9.08487C26.5824 9.02093 26.4429 8.82272 26.3225 8.51581C26.1893 8.21529 25.8533 7.38408 25.9357 7.23062C26.0689 6.97486 26.7663 5.95822 26.8424 5.80476C26.9946 5.51703 27.4258 5.32521 27.6921 5.16537C27.8125 5.09503 27.9457 5.04388 28.0598 4.96715C28.193 4.87764 28.2374 4.705 28.2881 4.56433C28.3705 4.32775 28.4276 4.08478 28.5037 3.84181C28.5163 3.80345 28.5607 3.75869 28.5861 3.72033C28.6178 3.66917 28.6495 3.61802 28.6812 3.57326C28.6939 3.55408 28.6939 3.54129 28.7002 3.52211C28.7066 3.49014 28.7256 3.46457 28.7383 3.43899C28.7636 3.39423 28.7827 3.34948 28.8207 3.31111C28.8461 3.27914 28.8778 3.25996 28.9031 3.23438C28.9475 3.18963 28.9856 3.13208 29.0553 3.13208C29.0807 3.13208 29.1124 3.13208 29.1377 3.13208C29.1694 3.13208 29.2075 3.13208 29.2392 3.13208C29.2582 3.13208 29.2836 3.13208 29.3026 3.14487C29.3153 3.15126 29.328 3.16405 29.3343 3.17684C29.3787 3.20881 29.4167 3.23438 29.4611 3.25357C29.5309 3.29193 29.5816 3.34308 29.626 3.39423C29.6767 3.45178 29.7274 3.51572 29.7781 3.56687C29.8352 3.62442 29.9113 3.66278 29.9747 3.71393L29.9874 3.70754Z" fill="#231815"/>
<path d="M30.6088 6.64881C30.558 6.30353 30.3298 5.97744 30.0381 5.8048C29.7337 5.62577 29.3026 5.77923 28.9729 5.8048C28.6812 5.82398 28.3578 5.86235 28.1169 6.04138C28.0218 6.11811 27.9203 6.22041 27.8125 6.36108C27.6033 6.64241 27.4891 6.87899 27.4765 7.07081C27.4638 7.33936 27.5906 7.53118 27.7301 7.74857C27.8442 7.9276 27.9013 8.11942 28.1105 8.20894C28.3959 8.33042 28.6812 8.2537 28.9665 8.22173C29.2962 8.18336 29.5816 8.145 29.8732 7.95957C30.2029 7.75497 30.4439 7.42248 30.577 7.04523C30.6214 6.91735 30.6278 6.78308 30.6088 6.64241V6.64881Z" fill="white"/>
<path d="M31.8391 6.1437L31.4143 5.68333L31.1226 5.402C31.1226 5.402 30.0764 4.19993 29.7277 3.80989L29.3219 3.2728C29.2458 3.13853 29.1634 3.01065 29.0365 2.99786C28.9034 2.99147 28.821 3.08738 28.6815 3.25362L28.3644 3.60529C28.2123 3.76514 27.09 4.53881 26.7095 4.77539C26.272 5.04393 26.0311 5.21657 25.9423 5.38921L25.5999 5.91351L25.0292 6.80867C24.9912 6.879 24.9151 7.02607 25.4097 8.20895C25.5555 8.56062 25.714 8.77162 25.8979 8.84835L26.8363 9.2192L26.9948 9.27675C27.407 9.4366 27.6353 9.46857 28.0284 9.44299L29.4931 9.26396C29.7594 9.2192 29.8355 9.20002 30.273 8.86753C30.5076 8.69489 30.7992 8.54144 31.0782 8.44553C31.725 8.22174 31.8455 7.82531 32.004 7.28183L32.0357 7.18592C32.061 7.09001 32.0801 6.9877 32.0801 6.879C32.0801 6.62964 31.9976 6.37388 31.8455 6.1437M29.9433 7.00049C29.8164 7.27543 29.6896 7.40331 29.3789 7.60152C29.0239 7.81892 28.6624 7.89565 28.2947 7.8445C28.1552 7.8445 27.984 7.80613 27.7811 7.7358C27.5401 7.66546 27.3943 7.58874 27.3436 7.50561C27.0836 7.23067 26.9631 6.96213 26.9885 6.71276C27.0012 6.52094 27.109 6.27797 27.3182 6.00303C27.426 5.86236 27.5275 5.76006 27.6226 5.68333C27.8889 5.49151 28.3137 5.42118 28.7068 5.46594C29.2902 5.54266 30.4315 6.29715 29.9433 7.00049Z" fill="#231815"/>
<path d="M21.0598 20.2489C21.1486 20.1018 21.3388 20.0315 21.5037 20.0251C21.6241 20.0251 21.7509 20.0507 21.8778 20.0315C22.0046 20.0187 22.1314 19.9931 22.2645 19.9739C22.5245 19.9292 22.7718 19.7949 23.0191 19.9292C23.1522 19.9995 23.2093 20.1402 23.2473 20.2808C23.2981 20.4982 23.4819 20.754 23.5073 20.9778C23.539 21.1952 23.6785 21.5532 23.8878 21.5596C24.3823 21.5596 24.9213 21.5341 25.4095 21.4637C25.7075 21.4254 25.9611 21.3167 26.2782 21.2847C26.7791 21.2463 27.2483 21.1696 27.7429 21.1888C28.2755 21.208 28.8271 21.0225 29.3661 20.997C29.4739 20.997 30.0572 21.0481 30.0953 20.9011C30.1777 20.575 30.406 20.3128 30.4567 19.9739C30.4884 19.7949 30.444 19.5519 30.5772 19.4049C30.7864 19.1683 31.0464 19.3665 31.281 19.4624C31.5346 19.5711 31.8199 19.699 32.0926 19.8333C32.3589 19.9611 32.8725 20.0315 33.0881 20.1594C33.4114 20.3384 33.5636 20.4791 33.5319 20.6197C33.4875 20.7988 33.3988 21.2655 33.3227 21.5916C33.2656 21.8474 33.2466 22.1351 33.1641 22.3717C33.0373 22.7489 33.1388 22.7553 32.8344 22.9535C32.4413 23.2093 32.2511 23.0814 31.6614 23.1326C31.3888 23.1517 30.8371 23.2668 30.4757 23.2988C30.1714 23.3244 29.8416 23.3436 29.4992 23.3691C29.1822 23.3947 28.8588 23.3691 28.5291 23.3947C28.2121 23.4203 27.838 23.3308 27.5146 23.3564C27.1976 23.3819 26.8742 23.3819 26.5635 23.4075C26.2528 23.4267 25.9485 23.4395 25.6505 23.4587C25.3271 23.4778 25.0164 23.5929 24.7311 23.6121C24.3696 23.6313 24.0526 23.6441 23.7863 23.6505C23.4249 23.6633 22.9113 23.8615 22.5943 23.5865C22.3597 23.3819 22.2899 23.0367 22.1377 22.7809C21.8778 22.3525 21.6115 21.9241 21.3832 21.4765C21.2627 21.2335 21.1739 20.9714 21.0725 20.7156C21.0091 20.5494 20.9901 20.3895 21.0725 20.2617L21.0598 20.2489Z" fill="#231815"/>
<path d="M22.5563 10.8178C22.4802 10.4981 21.751 10.8242 21.2881 10.9074C21.0092 10.9521 20.616 11.1247 20.3497 11.1503C19.741 11.2143 19.8235 11.4317 19.9439 11.7897C19.9947 11.9368 20.1659 12.2373 20.2419 12.6401C20.2927 12.9023 20.4765 14.0979 20.54 14.3921C20.6034 14.6926 20.5146 15.0123 20.5843 15.2936C20.6604 15.5941 20.8506 16.0929 20.9267 16.3231C21.0662 16.7323 21.0345 16.7387 21.1613 16.7898C21.5862 16.9305 22.0363 16.8218 22.5753 16.8729C22.8543 16.8985 23.1269 17.0584 23.4947 17.0903C23.8054 17.1223 24.9214 17.1671 25.2447 17.2054C25.5554 17.2374 25.8788 17.2438 26.2085 17.2758C26.5192 17.3077 26.8489 17.2054 27.1723 17.2374C27.502 17.2758 27.8381 17.3077 28.1678 17.3397C28.4911 17.3781 28.8209 17.3781 29.1379 17.4164C29.4549 17.4484 29.7466 17.6274 30.0509 17.653C30.3743 17.685 30.704 17.5827 31.0147 17.6146C31.3444 17.653 32.6316 17.7809 32.9233 17.8129C33.272 17.8448 33.57 17.9343 33.8236 17.9599C34.2738 18.0047 34.5655 17.9407 34.6416 17.9471C35.1932 17.9471 35.2186 17.8576 35.2122 17.3461C35.2122 17.2182 35.0537 16.9049 35.0791 16.4573C35.0981 16.1888 35.2693 15.9138 35.2883 15.5941C35.3137 15.3 35.3074 14.9995 35.3264 14.7118C35.3517 14.3793 35.3264 14.0788 35.3454 13.8038C35.3834 13.3051 35.6117 12.768 35.3644 12.7424C35.3074 12.7424 35.1045 12.7232 34.6733 12.5634C34.4514 12.4739 34.0392 12.4483 33.7983 12.378C33.5256 12.3012 33.2783 12.1158 33.0754 12.1094C32.8662 12.1094 32.9169 12.5378 32.8916 12.9534C32.8789 13.1964 32.9042 14.2834 32.9169 14.5391C32.9233 14.8205 32.8979 14.9611 32.8916 15.1849C32.8725 15.5494 32.7457 15.4982 32.6062 15.5366C32.5048 15.5686 32.1243 15.6133 31.6108 15.5941C31.3254 15.5814 29.9749 15.5366 29.6261 15.511C29.3091 15.4854 28.9794 15.3895 28.6497 15.364C28.3263 15.3384 27.9649 15.4599 27.6415 15.4343C27.3118 15.4087 27.0201 15.4279 26.7094 15.4023C26.367 15.3703 26.0373 15.3064 25.733 15.2553C25.3652 15.1977 24.7945 15.2808 24.4268 15.089C24.2683 15.0123 23.723 14.9611 23.6913 14.9547C23.2664 14.878 23.444 14.4113 23.1713 13.7143C23.0065 13.2731 23.2157 13.0557 23.0382 12.6145C22.8606 12.1606 22.8733 12.1861 22.7211 11.7322C22.588 11.3357 22.6387 11.1375 22.5499 10.8114L22.5563 10.8178Z" fill="#231815"/>
<path d="M29.5246 11.1439C29.5246 11.1439 29.5373 11.0863 29.5499 11.0607C29.626 10.7666 29.2646 10.805 29.0617 10.773C28.8651 10.7474 28.6876 10.7027 28.491 10.7027C28.2755 10.7027 28.1169 10.594 27.9077 10.5812C27.6604 10.5556 27.4005 10.5812 27.1532 10.5812C27.0517 10.5812 26.9376 10.562 26.8805 10.6515C26.8298 10.7346 26.8425 10.9009 26.8235 10.9904C26.7157 11.438 26.7981 12.525 26.6966 12.9725C26.5952 13.3881 26.462 13.6311 26.3606 14.0467C26.2591 14.4623 26.4303 15.0634 26.3606 15.4662C26.2782 15.9138 26.2591 15.901 26.2021 16.355C26.145 16.7961 25.847 16.7578 25.7963 17.2054C25.7392 17.6593 25.8597 17.6849 25.7963 18.1389C25.7392 18.5801 25.7012 18.5801 25.6377 19.0212C25.5807 19.4624 25.4919 20.3512 25.4285 20.8052C25.3651 21.2527 25.1939 21.2144 25.1368 21.6684C25.0798 22.1095 25.3651 22.1479 25.308 22.5955C25.251 23.0431 24.8832 23.8807 24.8261 24.3091C24.7627 24.8014 24.7247 25.2362 24.7691 25.7221C24.8515 26.5661 24.3823 27.0009 24.2935 27.7171C24.2365 28.1391 24.5662 28.1838 24.5091 28.5994C24.452 29.015 24.0462 29.079 24.3823 29.3667C24.7881 29.712 24.8769 29.5841 25.4158 29.5841C25.8914 29.5905 26.6079 29.7439 26.9629 29.4626C27.318 29.1813 27.0327 28.8552 27.0961 28.4268C27.1595 27.9792 27.1278 28.0112 27.1975 27.57C27.2673 27.1288 27.1468 27.116 27.2166 26.6748C27.28 26.24 27.5146 25.3833 27.5843 24.9357C27.6541 24.4945 27.559 24.5009 27.6224 24.0533C27.6921 23.6121 27.6351 23.5802 27.7048 23.139C27.7745 22.6914 27.5399 22.8576 27.6097 22.4101C27.6731 21.9817 27.6668 21.9817 27.7365 21.5533C27.7999 21.1121 27.6794 21.0865 27.7428 20.6517C27.8063 20.2233 28.1486 18.6888 28.2184 18.2668C28.2755 17.8831 28.2818 17.6657 28.3516 17.2821C28.4276 16.8281 28.3642 16.8984 28.4467 16.4445C28.5418 15.9841 28.5418 16.0928 28.6242 15.6324C28.713 15.1913 28.7827 15.1337 28.8651 14.6925C28.9539 14.2385 28.8651 14.1874 28.9539 13.7398C29.0427 13.2922 29.1061 13.4009 29.1885 12.9534C29.2709 12.5314 29.3407 12.103 29.4231 11.681C29.4548 11.5083 29.4865 11.3357 29.5309 11.163L29.5246 11.1439Z" fill="#231815"/>
<path d="M8.95563 28.139C8.69566 25.8627 8.58787 24.6479 8.21377 22.0903C8.16939 21.8281 8.02355 18.4521 7.93478 17.7296C7.76993 16.4316 7.40217 15.0122 7.23097 13.9124L7.24365 13.8357C7.37046 13.2282 7.3451 9.56449 7.3451 9.56449V8.65015L7.05343 6.32914L6.91394 5.90074V5.47234L6.67299 1.80859C6.67299 1.3802 6.50179 1.1692 6.29889 1.06689C6.29889 1.04771 6.29889 1.02853 6.29889 1.00935C6.21646 1.00295 6.12769 0.996558 6.04527 0.990164C5.9882 0.98377 5.92479 0.977376 5.87407 0.977376C5.04978 0.926224 4.23184 0.568161 3.42657 0.48504C3.12856 0.45307 1.56876 0.644889 1.54339 0.644889C0.877623 0.644889 0.351348 1.12444 0.294282 1.34823C0.237216 1.61677 -0.0290918 2.68457 0.00261157 2.95951C0.0469962 3.34954 0.877623 6.17568 0.896645 6.69359C0.947371 8.01715 1.04248 8.4903 1.03614 9.62204C1.03614 9.71155 1.42292 12.4929 1.42926 12.5824C1.47999 14.4175 2.16478 17.5058 2.72276 21.4317C2.81153 22.0775 2.84957 23.4394 3.05247 25.4599C3.08417 25.7668 3.26805 28.8871 3.3061 29.1748C3.47096 30.3833 3.64215 30.8373 3.78799 32.4421C3.92748 32.8194 4.98637 32.992 5.57606 32.9217C6.07697 32.8578 7.10416 33.1455 7.64311 33.1199C8.01721 33.1071 8.23914 32.4166 8.64494 32.4421C8.61958 30.8373 9.12683 29.6927 8.94929 28.139H8.95563Z" fill="white"/>
<path d="M42.5106 36.4704C42.5423 35.9269 42.5423 35.7734 42.5487 35.6072C42.5487 35.4537 42.7135 34.7376 41.8258 34.8016C41.4771 34.8207 38.0341 35.0701 37.5966 35.0573C37.1971 35.0445 33.1898 34.7888 32.727 34.7824C32.2895 34.7696 30.6663 34.9998 30.2161 34.987C29.7912 34.9742 26.2405 34.8463 25.7839 34.8399C25.3401 34.8399 24.8899 35.0126 24.4524 35.0062C23.9832 34.9934 23.5267 34.7888 23.0575 34.7824C22.6009 34.7824 20.9587 35.0445 20.5022 35.0381C20.0583 35.0381 18.1815 34.8975 17.725 34.8975C17.2684 34.8975 14.2693 34.7248 13.2992 34.712C12.4432 34.7056 11.5048 34.8016 10.6551 34.8207C10.4015 34.8335 8.22664 34.4691 7.68134 34.5778C7.35163 34.6417 7.02191 34.6737 6.70488 34.6929L6.05179 34.6481L5.26555 34.5266C5.26555 34.5266 5.15142 34.6097 5.01192 34.7248C4.80268 34.7376 4.65685 34.7696 4.59978 34.8335C4.53637 34.9039 4.53003 35.0445 4.5554 35.23C4.5554 35.2363 4.54272 35.2491 4.54272 35.2555L4.72659 37.5701L4.74562 37.6213C4.80902 38.1648 4.98656 39.0791 5.18946 39.0791C5.34798 39.0791 5.49381 39.1047 5.63331 39.1303C5.91864 39.3413 6.33712 39.5779 6.90144 39.7057C7.0663 39.7953 7.21848 39.8592 7.34529 39.8592C7.72573 39.8528 10.3381 40.0063 10.7819 39.9999C11.2068 39.9871 13.0773 39.629 13.5465 39.6098C15.9749 39.5395 17.0338 39.7953 17.5284 39.7185C18.8092 39.5139 24.928 40.0126 25.2006 39.9615C25.562 39.8912 28.2061 39.8016 28.688 39.7953C29.1191 39.7889 30.5141 39.5523 30.9833 39.5459C31.7188 39.5331 32.4543 39.6802 33.4879 39.7889C35.3583 39.9935 36.3855 39.8528 38.795 39.8336C39.3213 39.8272 40.9255 39.9551 41.2552 39.8208C41.8258 39.5906 42.8403 37.4359 42.9481 36.8732C43.0052 36.5151 42.4916 36.8221 42.5106 36.4704Z" fill="white"/>
<path d="M55.382 31.6101V30.0468H59.3344V33.7554C58.9408 34.1379 58.3832 34.4705 57.6534 34.7533C56.9236 35.036 56.1774 35.1857 55.423 35.1857C54.4636 35.1857 53.6354 34.9778 52.922 34.5703C52.2086 34.1629 51.6755 33.5808 51.3147 32.8241C50.9621 32.0591 50.7817 31.2359 50.7817 30.3462C50.7817 29.3816 50.9785 28.5168 51.3803 27.7685C51.7821 27.0118 52.3643 26.438 53.1352 26.0389C53.7256 25.7312 54.4554 25.5732 55.3246 25.5732C56.4562 25.5732 57.35 25.8144 57.9896 26.2967C58.6292 26.779 59.0392 27.4442 59.2196 28.3006L57.3828 28.6416C57.2516 28.1925 57.0138 27.8267 56.6612 27.5606C56.3086 27.2945 55.8658 27.1698 55.3328 27.1698C54.5292 27.1698 53.8814 27.4275 53.4058 27.9514C52.9384 28.4669 52.6924 29.2486 52.6924 30.2714C52.6924 31.3773 52.9302 32.2088 53.4222 32.7659C53.906 33.323 54.5456 33.5974 55.3246 33.5974C55.71 33.5974 56.1036 33.5226 56.4972 33.3646C56.8908 33.2066 57.227 33.0237 57.4976 32.7992V31.6101H55.382Z" fill="white"/>
<path d="M63.1557 35.0193V31.1111L59.8101 25.7395H61.9749L64.1233 29.4232L66.2143 25.7395H68.3381L64.9925 31.1278V35.0193H63.1557Z" fill="white"/>
<path d="M69.0186 35.0193V25.7395H75.8082V27.3111H70.8554V29.3649H75.4802V30.9365H70.8554V33.4477H75.9804V35.0193H69.0186Z" fill="white"/>
<path d="M84.5742 26.8452C83.7706 25.9971 82.68 25.5647 81.3352 25.5647C80.589 25.5647 79.933 25.6894 79.3589 25.9306C78.9325 26.1135 78.5389 26.3879 78.1699 26.7704C77.8091 27.1446 77.5221 27.577 77.3171 28.051C77.0383 28.6912 76.8989 29.4895 76.8989 30.4374C76.8989 31.9175 77.3007 33.0817 78.1043 33.9215C78.9079 34.7613 79.9904 35.1854 81.3516 35.1854C82.7128 35.1854 83.7788 34.7613 84.5742 33.9132C85.3778 33.065 85.7796 31.8926 85.7796 30.3875C85.7796 28.8825 85.3778 27.6934 84.566 26.8452M83.172 32.7823C82.6964 33.3228 82.0896 33.5889 81.3516 33.5889C80.6136 33.5889 80.0068 33.3145 79.5229 32.774C79.0391 32.2252 78.8013 31.4269 78.8013 30.3709C78.8013 29.3149 79.0391 28.4917 79.4983 27.9595C79.9658 27.4273 80.5808 27.1612 81.3434 27.1612C82.106 27.1612 82.721 27.4273 83.1802 27.9512C83.6394 28.475 83.869 29.2733 83.869 30.346C83.869 31.4186 83.6312 32.2418 83.1556 32.7823H83.172Z" fill="white"/>
<path d="M86.9521 35.0193V25.7395H88.7562L92.5118 31.951V25.7395H94.2256V35.0193H92.3724L88.666 28.9492V35.0193H86.9521Z" fill="white"/>
<path d="M100.204 31.6101V30.0468H104.164V33.7554C103.779 34.1379 103.213 34.4705 102.483 34.7533C101.745 35.036 101.007 35.1857 100.253 35.1857C99.2935 35.1857 98.4571 34.9778 97.7519 34.5703C97.0385 34.1629 96.5055 33.5808 96.1447 32.8241C95.7839 32.0591 95.6035 31.2359 95.6035 30.3462C95.6035 29.3816 95.8085 28.5168 96.2021 27.7685C96.6039 27.0118 97.1861 26.438 97.9569 26.0389C98.5391 25.7312 99.2689 25.5732 100.146 25.5732C101.278 25.5732 102.172 25.8144 102.803 26.2967C103.443 26.779 103.853 27.4442 104.033 28.3006L102.196 28.6416C102.065 28.1925 101.819 27.8267 101.467 27.5606C101.114 27.2945 100.671 27.1698 100.138 27.1698C99.3345 27.1698 98.6867 27.4275 98.2111 27.9514C97.7355 28.4669 97.4977 29.2486 97.4977 30.2714C97.4977 31.3773 97.7437 32.2088 98.2275 32.7659C98.7113 33.323 99.351 33.5974 100.138 33.5974C100.524 33.5974 100.917 33.5226 101.311 33.3646C101.696 33.2066 102.032 33.0237 102.319 32.7992V31.6101H100.196H100.204Z" fill="white"/>
<path d="M112.192 25.7395H114.029V31.6184C114.029 32.3834 113.963 32.9738 113.832 33.3895C113.652 33.93 113.324 34.3624 112.856 34.6867C112.389 35.0193 111.766 35.1856 110.995 35.1856C110.093 35.1856 109.396 34.9278 108.904 34.404C108.42 33.8801 108.174 33.1234 108.166 32.1173L109.929 31.951C109.954 32.4915 110.027 32.8657 110.159 33.0902C110.364 33.4311 110.659 33.5974 111.069 33.5974C111.479 33.5974 111.766 33.481 111.938 33.2398C112.11 32.9987 112.192 32.4998 112.192 31.7514V25.7478V25.7395Z" fill="white"/>
<path d="M115.726 25.7398H117.563V30.7871C117.563 31.5854 117.587 32.1092 117.628 32.3504C117.71 32.7329 117.899 33.0405 118.194 33.2734C118.489 33.5062 118.9 33.6226 119.416 33.6226C119.933 33.6226 120.335 33.5145 120.597 33.29C120.859 33.0738 121.023 32.8077 121.081 32.4834C121.138 32.1674 121.163 31.6353 121.163 30.8952V25.7314H123V30.6125C123 31.7267 122.95 32.5167 122.852 32.974C122.754 33.4397 122.573 33.8305 122.303 34.1381C122.04 34.4541 121.679 34.7119 121.228 34.8948C120.777 35.0861 120.195 35.1776 119.474 35.1776C118.604 35.1776 117.94 35.0778 117.489 34.8699C117.038 34.662 116.685 34.4042 116.423 34.0716C116.161 33.7473 115.988 33.3981 115.906 33.0405C115.783 32.5084 115.726 31.7267 115.726 30.6873V25.7314V25.7398Z" fill="white"/>
<path d="M86.6815 6.48062L82.0894 11.4448L83.5491 12.8335L88.0509 7.96073L92.5609 12.8335L94.0124 11.4448L89.4203 6.48062L89.4531 6.45568H95.0374V4.42676H81.0234V6.45568H86.6569L86.6815 6.48062Z" fill="white"/>
<path d="M95.3982 14.4719H80.6709V16.5008H86.9112V19.7188H89.0596V16.5008H95.3982V14.4719Z" fill="white"/>
<path d="M58.3586 12.8089H60.6956V4.46045H50.7817V6.58915H58.3586V12.8089Z" fill="white"/>
<path d="M64.443 3.70361V5.36666H61.7124V7.39558H64.443V9.19167H61.7124V11.2123H64.443V12.8088H66.4356V3.70361H64.443Z" fill="white"/>
<path d="M60.9741 13.8315C58.8257 13.8315 57.0791 15.4613 57.0791 17.4819C57.0791 19.5025 58.8257 21.1323 60.9741 21.1323C63.1226 21.1323 64.8692 19.4942 64.8692 17.4819C64.8692 15.4696 63.1226 13.8315 60.9741 13.8315ZM60.9905 19.2115C60.0147 19.2115 59.2275 18.4714 59.2275 17.5568C59.2275 16.6421 60.0147 15.902 60.9905 15.902C61.9663 15.902 62.7536 16.6421 62.7536 17.5568C62.7536 18.4714 61.9663 19.2115 60.9905 19.2115Z" fill="white"/>
<path d="M122.442 4.3689H120.293V19.6689H122.442V4.3689Z" fill="white"/>
<path d="M111.602 4.45215L107.567 16.9333L109.494 17.4655L112.446 8.35199L115.398 17.4655L117.325 16.9333L113.283 4.45215H111.602Z" fill="white"/>
</g>
</svg>
