<svg width="406" height="30" viewBox="0 0 406 30" fill="none" xmlns="http://www.w3.org/2000/svg">
<g clip-path="url(#clip0_752_5874)">
<path d="M34 5.01268C34.0414 3.74908 33.6535 2.74731 33.695 1.5634C33.6987 1.40402 32.6706 0.227702 32.2413 0.216318C32.0944 0.212524 30.765 0.406048 30.5955 0.402253C30.1963 0.390869 28.4112 0.212524 27.3906 0.216318C26.9198 0.216318 25.7222 0.121454 24.9954 0.0569458C24.8673 0.0455621 22.9805 0.277032 22.8261 0.269443C21.7227 0.231497 20.2049 0.0569458 19.7756 0.00382161C19.3689 -0.0417134 16.5067 0.333951 15.8627 0.371897C15.1245 0.413637 14.5483 0.277032 13.8478 0.170783C13.0795 0.0531512 7.58486 0.538858 7.44175 0.538858C7.27227 0.538858 6.83541 0.739971 6.84294 0.918317C6.85424 1.17255 6.4814 2.41718 6.61321 2.72075C6.94463 3.47966 6.9258 5.01647 6.9032 5.82092C6.87307 6.84167 7.03125 7.78272 7.18942 8.9211C7.26851 9.47132 7.27227 10.8905 7.35513 11.5925C7.40409 11.9871 7.35889 12.6512 7.35889 13.042C7.35136 14.5788 7.50577 15.7969 7.66771 17.3527C7.75433 18.2178 8.08951 21.2801 8.10834 22.168C8.11211 22.3312 8.13847 22.4412 8.17236 22.5247L8.30417 23.2419C8.30417 23.2419 8.07444 23.5189 8.48495 24.1146C8.48495 24.1146 8.62429 24.661 9.35114 24.8014L9.75787 24.6648L10.5186 24.7218L10.85 24.8014L11.0722 24.7521C12.0401 24.8242 13.5993 25.0215 13.8855 25.0215C14.2207 25.0215 15.6028 24.8735 15.9568 24.8735C16.3108 24.8735 18.7098 24.957 19.0676 24.9608C19.4028 24.9646 20.7661 24.8963 21.105 24.9001C21.4553 24.9001 26.2909 25.0557 26.6261 25.0633C26.9763 25.0709 29.7481 25.0443 30.0494 25.0481C30.3243 25.0519 31.1077 24.6762 31.6123 24.6648C31.6086 24.5814 32.3354 23.4733 32.3467 23.3633C32.4936 22.1946 32.2865 22.4943 32.4446 21.595C32.6932 20.1758 32.2337 18.4114 32.5614 17.2123C32.6442 16.9049 33.2543 11.8961 33.2882 11.6001C33.4615 9.9722 33.7364 9.65725 33.7213 8.03317C33.7213 7.86241 33.6761 6.71265 33.6799 6.51913C33.6874 6.31422 33.9925 5.22138 34 5.02027V5.01268Z" fill="#0055A2"/>
<path d="M30.8065 2.48535C30.7312 2.88378 30.6672 3.27842 30.5994 3.67685C30.9684 3.77551 31.33 3.87038 31.6953 3.97283C31.7555 3.5744 31.8233 3.17976 31.8874 2.78512C31.5258 2.68267 31.168 2.58401 30.8065 2.48535Z" fill="white"/>
<path d="M30.0833 6.74671C30.1171 7.03131 30.151 7.3159 30.1887 7.5967C30.4599 7.59291 30.7235 7.58911 30.9909 7.58532C30.9494 7.30452 30.9118 7.02372 30.8779 6.74292C30.6105 6.74292 30.3469 6.74671 30.0833 6.74671Z" fill="white"/>
<path d="M14.7478 3.46063C14.4277 3.39233 14.1114 3.32403 13.7913 3.25952C13.8026 3.6238 13.8139 3.99188 13.8139 4.35995C14.1151 4.37134 14.4164 4.3941 14.7177 4.42066C14.7328 4.09812 14.7441 3.78697 14.7478 3.46443V3.46063Z" fill="white"/>
<path d="M8.89917 2.41338C8.97449 2.86115 9.05358 3.30891 9.12513 3.75667C9.50551 3.72631 9.88588 3.69975 10.2625 3.68078C10.1834 3.2406 10.1043 2.79284 10.0252 2.34888C9.64862 2.37164 9.27578 2.39062 8.89917 2.41338Z" fill="white"/>
<path d="M11.4941 6.28003C11.5356 6.61395 11.5808 6.94408 11.6184 7.27421C11.9348 7.26662 12.2474 7.26283 12.5599 7.26283C12.5147 6.9327 12.4696 6.60636 12.4244 6.28003C12.1193 6.28003 11.8067 6.28003 11.4979 6.28003H11.4941Z" fill="white"/>
<path d="M26.8069 3.94644C26.8408 4.22724 26.8784 4.51184 26.9123 4.79264C27.1835 4.78505 27.4509 4.78125 27.7145 4.78125C27.6768 4.49666 27.6354 4.21965 27.6015 3.93506C27.3341 3.93506 27.0705 3.93506 26.8069 3.94265V3.94644Z" fill="white"/>
<path d="M10.8989 11.2319C10.9291 11.2623 10.9592 11.2926 10.9931 11.3192L10.8989 11.2319Z" fill="#C6B67C"/>
<path d="M17.3617 7.7864C17.3014 7.54734 16.7591 7.79399 16.4126 7.85471C16.198 7.88886 15.908 8.01408 15.7046 8.03685C15.4523 8.06341 15.0493 8.18483 14.9213 8.43907C14.8422 8.59085 15.0681 8.65157 15.1698 8.70469C15.3506 8.79956 15.5389 8.90581 15.6104 9.11451C15.682 9.30803 15.6858 9.5433 15.7234 9.74441C15.7686 9.98347 15.7987 10.2301 15.8477 10.4692C15.8929 10.6931 15.8289 10.9359 15.8816 11.1446C15.9381 11.3685 16.0812 11.7442 16.1377 11.9149C16.2394 12.2185 16.2205 12.2299 16.3147 12.264C16.631 12.3741 16.97 12.2868 17.3767 12.3285C17.5876 12.3475 17.791 12.4651 18.0659 12.4955C18.2956 12.5183 19.1355 12.5524 19.3803 12.579C19.6138 12.6017 19.8548 12.6055 20.1034 12.6321C20.3369 12.6549 20.5816 12.5828 20.8264 12.6093C21.075 12.6321 21.3273 12.6587 21.5759 12.6852C21.8207 12.7118 22.0655 12.7156 22.3065 12.7421C22.5438 12.7649 22.766 12.9015 22.9919 12.9205C23.2367 12.9432 23.4853 12.8674 23.715 12.8901C23.8355 12.9015 23.9523 12.9129 24.0728 12.9281C24.3552 12.9546 24.6452 13.0002 24.9277 13.0002C25.0633 13.0002 25.1725 13.0647 25.3005 13.1102C25.4587 13.1709 25.6206 13.2089 25.7826 13.2354C25.9295 13.2582 26.0085 13.3379 26.1291 13.4062C26.2571 13.4821 26.355 13.4441 26.4529 13.3379C26.5019 13.2848 26.5245 13.2203 26.5659 13.1595C26.6073 13.0988 26.6638 13.0457 26.694 12.9812C26.7279 12.9167 26.7203 12.837 26.7316 12.7649C26.7655 12.5372 26.7956 12.3171 26.8069 12.0895C26.8145 11.9642 26.7919 11.8618 26.8258 11.7404C26.8634 11.6189 26.9162 11.5013 26.9237 11.3761C26.9388 11.156 26.935 10.9321 26.9538 10.712C26.9764 10.4654 26.9538 10.2339 26.9651 10.0328C26.9915 9.66093 27.1685 9.25491 26.9802 9.23593C26.935 9.23593 26.7806 9.22076 26.4605 9.09933C26.2684 9.02723 26.0537 9.05 25.8579 9.01205C25.7562 8.99308 25.6771 8.93996 25.583 8.90581C25.4738 8.86786 25.3419 8.92478 25.229 8.93237C25.116 8.93237 25.0331 9.01205 24.9277 9.05379C24.8561 9.08415 24.7582 9.08415 24.7281 9.17902C24.698 9.28526 24.826 9.3308 24.875 9.3991C24.9314 9.47879 24.939 9.6116 24.9578 9.70646C25.003 9.92655 25.0557 10.1504 25.1009 10.3705C25.116 10.4426 25.131 10.5147 25.1348 10.5868C25.1423 10.7993 25.1235 10.9018 25.1197 11.0725C25.1085 11.3495 24.8072 11.1826 24.7657 11.2736C24.7356 11.3495 24.7507 11.4596 24.3665 11.4634C23.6585 11.4709 22.9806 11.4064 22.7057 11.3723C22.3705 11.3343 21.9676 11.3495 22.0127 11.2015C22.0617 11.0422 21.4215 11.2812 21.1767 11.2584C20.9319 11.2395 20.7097 11.2584 20.4762 11.2319C20.2163 11.2091 20.0958 11.2053 19.8661 11.1674C19.5912 11.1218 19.0413 11.2053 18.7626 11.0611C18.6421 11.0042 18.2392 10.9663 18.2128 10.9625C17.9002 10.9093 18.0283 10.4881 17.8249 9.9645C17.6968 9.63437 17.855 9.4712 17.7232 9.14107C17.5914 8.80335 17.6027 8.81853 17.4822 8.47702C17.3843 8.17725 17.4219 8.03305 17.3579 7.7864H17.3617Z" fill="white"/>
<path d="M17.0527 16.8252C16.9473 16.6544 16.8418 16.4836 16.7401 16.3091C16.6497 16.1573 16.6008 15.9562 16.4275 15.9031C16.2618 15.8537 16.0961 15.7854 15.9718 15.664C15.889 15.5843 15.84 15.4515 15.7911 15.3415C15.7421 15.22 15.8551 15.0986 15.9078 14.9924C15.953 14.9013 16.0246 14.833 16.115 14.7837C16.2317 14.7154 16.4012 14.6736 16.5368 14.6509C16.7815 14.6091 17.0301 14.6357 17.2749 14.5863C17.3766 14.5674 17.5235 14.4991 17.6289 14.5522L17.7268 14.5901C17.8624 14.666 17.8586 14.8216 17.8888 14.9582C17.9264 15.1214 18.0658 15.3149 18.0884 15.4819C18.1034 15.5805 18.1072 15.7437 18.1976 15.8082C18.2616 15.8575 18.3708 15.831 18.4499 15.831C18.7587 15.831 19.06 15.7816 19.3688 15.7703C19.6776 15.7589 19.9789 15.6982 20.284 15.6754C20.3781 15.6678 20.4685 15.702 20.5551 15.6564C20.6757 15.5919 20.7736 15.4667 20.879 15.3756C20.9506 15.3111 20.9845 15.3111 20.9732 15.4212C20.9581 15.5464 21.3573 15.554 21.4138 15.5464C21.6473 15.516 21.8808 15.4743 22.1143 15.4363C22.3101 15.406 22.5173 15.406 22.7056 15.3529C22.8185 15.3187 22.9315 15.2504 22.9805 15.1366C23.052 14.9734 22.9428 14.8216 22.9278 14.6622C22.9127 14.4308 23.1801 14.3701 23.3533 14.3283C23.4512 14.3093 23.5567 14.2448 23.6546 14.2562C23.794 14.2638 23.9446 14.3587 24.0726 14.4156C24.2271 14.4839 24.3777 14.5522 24.5283 14.6243C24.7279 14.7192 25.1121 14.7685 25.274 14.8634C25.515 15 25.6318 15.1062 25.6017 15.2125C25.5678 15.3453 25.5 15.6944 25.4435 15.9372C25.3983 16.1307 25.387 16.3432 25.3267 16.5216C25.2326 16.8024 25.3079 16.81 25.0782 16.958C24.7844 17.1515 24.6413 17.0528 24.1969 17.0908C23.9898 17.106 23.5454 17.1515 23.2742 17.1743C23.0483 17.1932 22.8336 17.2501 22.5737 17.2691C22.3365 17.2881 22.0917 17.2691 21.8469 17.2881C21.6096 17.3071 21.331 17.2388 21.0862 17.2577C20.8451 17.2767 20.6041 17.2767 20.3706 17.2919C20.1371 17.3071 19.9074 17.3185 19.6852 17.3336C19.4442 17.3488 19.2107 17.4399 18.9922 17.4513C18.7211 17.4664 18.4838 17.4778 18.2842 17.4816C17.949 17.493 17.4783 17.4057 17.4105 17.3868C17.29 17.345 17.2259 17.1249 17.0452 16.8289L17.0527 16.8252Z" fill="white"/>
<path d="M22.5021 8.64021C22.4494 8.54914 22.3741 8.46186 22.3176 8.37838C22.2347 8.24937 22.1331 8.1545 21.9937 8.10138C21.8694 8.05584 21.7339 8.09379 21.6096 8.10138C21.4514 8.11656 21.2179 8.18106 21.0597 8.13932C20.9919 8.13932 20.7584 8.0824 20.6869 8.0824C20.5475 8.12415 20.6229 8.19245 20.5626 8.44289C20.4835 8.78061 20.5438 9.59265 20.4647 9.93037C20.3894 10.2377 20.2877 10.4237 20.2161 10.7348C20.1408 11.046 20.2651 11.4975 20.2124 11.7973C20.1483 12.1312 20.137 12.1236 20.0956 12.4614C20.0504 12.7953 19.832 12.7611 19.7906 13.0951C19.7454 13.4366 19.8395 13.4555 19.7943 13.7933C19.7529 14.1272 19.719 14.1234 19.6738 14.4535C19.6324 14.7836 19.5608 15.4515 19.5156 15.793C19.4704 16.1307 19.3424 16.1004 19.2972 16.4381C19.252 16.772 19.4667 16.8024 19.4253 17.1363C19.3801 17.4702 19.1051 18.1001 19.0637 18.4189C19.0185 18.7869 18.9846 19.1133 19.0223 19.4775C19.0825 20.1112 18.7323 20.4414 18.6645 20.9726C18.6269 21.2914 18.8679 21.3217 18.8265 21.6367C18.7888 21.9478 18.48 21.9972 18.7323 22.2097C19.0336 22.4677 19.1014 22.3728 19.5081 22.3766C19.8659 22.3804 20.4044 22.4942 20.6681 22.2855C20.9354 22.073 20.7208 21.834 20.7697 21.5114C20.8187 21.1775 20.7961 21.2003 20.8451 20.8664C20.8978 20.54 20.8074 20.5249 20.8601 20.1985C20.9091 19.8722 21.0861 19.2309 21.135 18.8932C21.184 18.5631 21.2443 18.5706 21.2932 18.2367C21.3422 17.9028 21.2782 17.8459 21.3271 17.512C21.3798 17.178 21.1049 17.3336 21.1539 16.9959C21.2028 16.6733 21.1991 16.6733 21.248 16.3508C21.297 16.0207 21.2028 16.0017 21.2518 15.6716C21.3008 15.3528 21.5568 14.1993 21.6058 13.8843C21.6472 13.5959 21.6548 13.429 21.7037 13.1444C21.7602 12.8067 21.7113 12.856 21.779 12.5183C21.8468 12.1768 21.8468 12.2527 21.9146 11.9111C21.9786 11.581 22.0314 11.5355 22.0954 11.2091C22.1594 10.8714 22.0992 10.8335 22.1632 10.4958C22.231 10.1618 22.2762 10.2377 22.3364 9.90381C22.3666 9.75582 22.3929 9.60783 22.423 9.45984C22.4419 9.34221 22.472 9.22837 22.4984 9.11074C22.5247 8.98552 22.5775 8.87168 22.5436 8.74266C22.536 8.70472 22.5172 8.67057 22.4984 8.63262L22.5021 8.64021Z" fill="white"/>
<path d="M11.1625 19.9899C11.2453 19.9633 11.3433 19.9709 11.4299 19.9671C11.573 19.9633 11.6973 19.9899 11.8366 20.0051C12.0287 20.0278 12.2283 19.9899 12.4166 19.9747C13.1886 19.914 13.9682 19.9026 14.744 19.9064C15.1959 19.9064 15.6441 19.9216 16.096 19.9292C16.322 19.933 16.9095 19.9595 17.1392 19.9633C17.3577 19.9671 17.5949 19.9444 17.8209 19.952C18.0469 19.9557 18.2879 20.0089 18.5214 20.0165C18.7398 20.0241 18.962 20.081 19.188 20.0924C19.4102 20.0999 19.5985 20.0316 19.8244 20.0392C20.0542 20.043 20.3291 20.1341 20.5588 20.1417C20.781 20.1531 20.9994 20.0582 21.2179 20.0696C21.4476 20.081 21.6698 20.1303 21.892 20.1379C22.1217 20.1493 22.4155 20.0392 22.6414 20.0468C22.8599 20.0582 23.0105 20.0772 23.2214 20.0848C23.4436 20.0961 23.6621 20.0468 23.8767 20.0544C24.0989 20.0658 24.3211 20.043 24.5395 20.0544C24.7655 20.0658 25.3869 20.191 25.6053 20.2024C25.8388 20.2138 25.6581 20.2441 25.8765 20.2517C26.0912 20.2631 26.3021 20.3656 26.5017 20.3732C26.7201 20.3807 26.9348 20.2479 27.1306 20.2593C27.3076 20.2707 27.4733 20.358 27.6465 20.3542C27.7784 20.3542 27.9026 20.3048 28.0382 20.3048C28.347 20.3011 28.6671 20.3314 28.976 20.3124C29.1906 20.2973 29.3563 20.2517 29.5597 20.3845C29.8836 20.597 29.7781 21.0182 29.7819 21.337C29.7819 21.5267 29.7329 21.7392 29.7066 21.9289C29.6651 22.2287 29.699 22.3653 29.4844 22.5323C29.2132 22.741 29.2358 22.7296 28.8027 22.722C28.6031 22.722 28.5391 22.4791 28.2792 22.4754C27.0703 22.4564 26.3887 22.1604 25.1195 22.3008C24.7165 22.3425 23.8353 22.4829 23.4662 22.4791C23.2327 22.4791 23.003 22.5512 22.7921 22.5512C22.5511 22.5512 22.3176 22.4829 22.1104 22.4829C21.8619 22.4829 21.6434 22.4374 21.4589 22.4412C21.1162 22.445 20.8601 22.2818 20.8036 22.297C19.8395 22.5171 18.8679 22.2325 17.8736 22.2363C16.6609 22.2363 15.791 22.4298 14.5708 22.4374C14.3373 22.4374 14.0586 22.6727 13.8439 22.6727C13.6217 22.6727 13.1434 22.5664 12.9551 22.5664C12.7216 22.5664 12.5333 22.5588 12.3601 22.5588C11.9797 22.5588 12.0852 22.6613 11.8667 22.4488C11.5918 22.1794 11.7161 22.2173 11.5881 21.8189C11.5203 21.5988 11.3546 21.3863 11.2378 21.189C11.1587 21.0562 11.0796 20.9196 11.0043 20.7868C10.9629 20.7109 10.9328 20.6464 10.9102 20.5705C10.9026 20.5477 10.8122 20.3732 10.8198 20.3656C10.8876 20.2479 11.0043 20.0999 11.1211 20.0241C11.1361 20.0127 11.1512 20.0051 11.1738 19.9975L11.1625 19.9899Z" fill="white"/>
<path d="M29.2434 13.4214C29.1267 13.2962 29.0175 13.1558 28.8405 13.114C28.735 13.0875 28.6408 13.1178 28.5392 13.114C28.2266 13.0913 28.2303 13.1558 28.1475 13.4252C28.0948 13.5846 28.0345 13.7326 28.0006 13.8957C27.9479 14.1424 27.8688 14.3587 27.7935 14.5939C27.7031 14.8709 27.7219 15.1935 27.5939 15.4553C27.4658 15.7133 27.3039 15.96 27.1796 16.2256C26.7917 17.0604 26.7992 17.918 26.4942 18.7376C26.3774 19.045 26.3134 19.026 26.1929 19.3334C26.0762 19.6483 26.1402 19.6711 26.0197 19.9898C25.8766 20.3807 24.9802 21.3748 25.6054 21.4697C25.8238 21.5039 26.8934 21.4242 27.1118 21.4469C27.3867 21.4735 27.6504 21.1054 27.8161 20.9081C27.9592 20.7374 28.0044 20.4831 28.0797 20.2858C28.1513 20.0885 28.2567 19.895 28.3283 19.6901C28.4036 19.4927 28.5166 19.3068 28.5844 19.1057C28.6634 18.897 28.7727 18.6997 28.848 18.491C28.9195 18.2861 28.9798 18.0774 29.0513 17.8838C29.1267 17.6713 29.0928 17.4247 29.1643 17.2236C29.2359 17.0225 29.4468 16.8745 29.5108 16.6885C29.5824 16.4798 29.5334 16.2484 29.5974 16.0662C29.6765 15.8385 29.91 15.4667 29.9665 15.2921C30.0418 15.0569 30.1925 14.8444 30.3205 14.6281C30.3506 14.5749 30.4523 14.4611 30.441 14.4004C30.4222 14.2904 30.1623 14.1765 30.087 14.093C30.0117 14.0133 29.9665 13.9261 29.8686 13.854C29.6727 13.706 29.4129 13.6111 29.2434 13.429V13.4214Z" fill="white"/>
<path d="M29.5749 14.0892C29.4431 13.8957 28.9347 13.6946 28.7953 13.52C28.5769 13.243 28.253 13.0913 28.1852 13.2127C28.0195 13.5087 28.0572 13.4935 27.9404 13.8122C27.9404 13.8122 27.9329 13.816 27.9329 13.8236C27.609 14.6774 27.1345 15.4667 26.7504 16.2977C26.3662 17.1249 26.3737 17.9711 26.0687 18.7793C25.9519 19.0867 25.8879 19.0639 25.7749 19.3675C25.6582 19.6787 25.7222 19.7014 25.6055 20.0164C25.4624 20.4034 24.5811 21.3862 25.195 21.4811C25.4096 21.5152 26.4717 21.4355 26.6863 21.4583C26.9537 21.4849 27.2211 21.1206 27.383 20.9233C27.5224 20.7563 27.5714 20.5059 27.6429 20.3086C27.7145 20.115 27.8161 19.9215 27.8915 19.7166C27.963 19.5231 28.0722 19.3371 28.1438 19.136C28.2229 18.9311 28.3321 18.7338 28.4037 18.5289C28.479 18.3278 28.5355 18.1229 28.607 17.9293C28.6861 17.7169 28.6484 17.4778 28.72 17.2767C28.7916 17.0756 28.9987 16.9276 29.0627 16.7454C29.1343 16.5405 29.0853 16.3091 29.1456 16.1307C29.2247 15.903 29.4544 15.535 29.5109 15.3642C29.6088 15.0606 29.9892 14.5294 29.9892 14.4763C29.9892 14.3435 29.7444 14.3435 29.5749 14.0892Z" fill="#D6C560"/>
<path d="M14.5331 19.9368C14.4804 19.7357 14.4164 19.5308 14.3599 19.3145C14.3072 19.1134 14.3185 18.8971 14.262 18.6884C14.2055 18.4911 14.1113 18.3014 14.0586 18.104C13.9983 17.8953 14.0096 17.6715 13.9494 17.4665C13.5991 16.2257 13.1999 14.8748 12.8233 13.6188C12.7028 13.228 12.7555 13.0193 12.443 12.8637C12.2283 12.7537 12.0136 12.8827 11.7914 12.8182C11.5692 12.7537 11.3809 12.7347 11.1437 12.7195C10.9516 12.7043 10.752 12.7309 10.5599 12.6967C10.3754 12.6626 10.221 12.5715 10.0327 12.6057C9.90087 12.6322 9.84814 12.7688 9.72386 12.8182C9.61465 12.8599 9.44141 12.913 9.48284 13.0648C9.53556 13.2318 10.1833 13.5847 10.2511 13.801C10.3076 13.9755 10.3867 14.1653 10.4582 14.3702C10.526 14.5675 10.7972 15.4137 10.8763 15.63C10.9478 15.8349 11.2002 16.2409 11.2792 16.4458C11.3508 16.6469 11.5542 17.2427 11.6257 17.44C11.7048 17.6487 11.9383 17.9181 12.0136 18.123C12.0927 18.3241 12.1944 19.0868 12.2735 19.2879C12.4091 19.6522 12.62 20.7413 13.1472 20.7792C13.3694 20.7982 14.164 20.7261 14.39 20.7678C14.631 20.8096 14.616 20.2442 14.5369 19.9368H14.5331Z" fill="white"/>
<path d="M14.0172 20.2214C13.9645 20.0203 13.9005 19.8154 13.844 19.5991C13.7912 19.3979 13.8025 19.1779 13.7423 18.973C13.6896 18.7756 13.5954 18.5859 13.5351 18.3848C13.4787 18.1761 13.4862 17.9522 13.4259 17.7473C13.0757 16.5103 12.6802 15.1556 12.2999 13.8996C12.1794 13.5087 12.2321 13.3 11.9195 13.1445C11.5843 12.9737 11.6032 13.1824 11.2341 13.0989C10.8198 13.0041 10.8462 13.1065 10.4357 13.0155C10.0402 12.9244 9.62974 12.9092 9.44144 12.9775C9.4565 13.0951 9.37741 13.2659 9.45274 13.5277C9.50169 13.6947 9.66363 13.8692 9.73142 14.0855C9.79168 14.2601 9.87077 14.4498 9.93856 14.6547C10.0026 14.852 10.2775 15.6982 10.3566 15.9145C10.4281 16.1194 10.6805 16.5254 10.7558 16.7304C10.8273 16.9315 11.0307 17.5272 11.106 17.7245C11.1814 17.9332 11.4186 18.2027 11.4939 18.4076C11.5693 18.6087 11.6747 19.3714 11.75 19.5725C11.8856 19.9368 12.0965 21.0258 12.6238 21.0638C12.846 21.0789 13.6406 21.0106 13.8666 21.0524C14.1038 21.0941 14.0925 20.5249 14.0134 20.2214H14.0172Z" fill="#D6C560"/>
<path d="M10.7898 20.396C10.8312 20.3315 11.0007 20.4567 11.3999 20.4187C12.9741 20.267 14.1529 20.2783 15.7195 20.3163C15.9417 20.3239 16.5292 20.3466 16.7627 20.3504C16.9812 20.3542 17.2184 20.3315 17.4444 20.3391C17.6704 20.3428 17.9114 20.3998 18.1449 20.4036C18.3633 20.4111 18.5855 20.4681 18.8077 20.4795C19.0337 20.487 19.222 20.4187 19.4479 20.4301C19.6777 20.4377 19.9488 20.525 20.1823 20.5326C20.4008 20.5402 20.6267 20.4491 20.8452 20.4567C21.0711 20.4643 21.2971 20.5174 21.523 20.5288C21.749 20.5364 22.0428 20.4263 22.2725 20.4339C22.4909 20.4453 22.6416 20.4643 22.8525 20.4681C23.0747 20.4795 23.2931 20.4301 23.5078 20.4415C23.73 20.4529 23.9522 20.4301 24.1706 20.4415C24.4003 20.4529 25.0179 20.5781 25.2364 20.5895C25.4661 20.5971 25.2891 20.6274 25.5038 20.6388C25.7222 20.6502 25.9293 20.7489 26.1289 20.7603C26.3474 20.7716 26.562 20.6388 26.7579 20.6502C26.9763 20.6616 27.1834 20.8096 27.3793 20.8172C27.6693 20.8323 27.9705 20.8172 28.2643 20.8248C28.4488 20.8248 28.6334 20.8248 28.8179 20.8134C28.9535 20.802 29.1079 20.7678 29.2209 20.8589C29.5711 21.1473 29.379 21.9404 29.3301 22.3122C29.2924 22.612 29.4016 22.5665 29.1832 22.7334C28.9121 22.9383 29.0213 22.8776 28.5919 22.8738C28.3961 22.8738 28.1626 22.8625 27.9027 22.8587C26.6901 22.8435 26.016 22.5475 24.743 22.6879C24.3401 22.7296 23.4626 22.87 23.0897 22.8662C22.8562 22.8662 22.6265 22.9345 22.4118 22.9383C22.1708 22.9383 21.9411 22.87 21.7339 22.87C21.4891 22.87 21.267 22.8283 21.0824 22.8283C20.7435 22.8321 20.4836 22.6689 20.4271 22.6841C19.463 22.9042 18.4914 22.6196 17.4971 22.6234C16.774 22.6272 16.0623 22.7069 15.3467 22.7676C15.0191 22.7941 14.6914 22.7979 14.3751 22.8625C14.0361 22.9345 13.6746 22.8549 13.3243 22.927C13.2113 22.9497 13.1134 23.0029 12.9929 23.0029C12.8536 23.0029 12.7142 22.9535 12.5711 22.9573C12.3414 22.9573 12.1493 22.9497 11.9761 22.9497C11.5957 22.9497 11.7012 23.0522 11.4827 22.8397C11.2078 22.5741 11.3283 22.6082 11.2078 22.2098C11.1325 21.9821 11.1362 21.7051 11.0685 21.4736C10.9856 21.1777 10.6919 20.5364 10.7898 20.4036V20.396Z" fill="#D6C560"/>
<path d="M22.506 2.78512C22.506 2.78512 22.5286 2.80409 22.5399 2.81927C22.6454 2.93311 22.7207 3.0811 22.8261 3.19494C22.9579 3.33913 23.086 3.48333 23.2103 3.63131C23.3157 3.75654 23.4852 3.86278 23.617 3.96144C23.794 4.09805 23.8919 4.29537 24.0313 4.45853C24.1104 4.54581 24.1857 4.6217 24.2422 4.72036C24.3024 4.8342 24.3665 4.95563 24.4493 5.05808C24.5284 5.15674 24.5999 5.24781 24.6075 5.38062C24.615 5.52861 24.5472 5.69557 24.4606 5.80941C24.3627 5.93842 24.3062 6.09021 24.2158 6.22302C24.1669 6.29511 24.1104 6.38998 24.0426 6.4469C23.9974 6.48864 23.9371 6.49623 23.8806 6.5152C23.6396 6.59489 23.4136 6.7239 23.2479 6.84533C22.9203 7.09577 22.8864 7.09577 22.7056 7.12613C22.4458 7.16407 21.9788 7.23238 21.6135 7.25515C21.3348 7.27412 21.1841 7.25514 20.8791 7.13751C20.5703 7.01988 20.2916 6.91743 20.0618 6.81497C19.9489 6.76564 19.8434 6.61765 19.753 6.38998C19.6551 6.1623 19.4028 5.53999 19.463 5.42615C19.5647 5.23642 20.0844 4.46992 20.1447 4.35988C20.2577 4.14738 20.5816 3.99939 20.7812 3.87796C20.8715 3.82484 20.9732 3.79069 21.0561 3.73377C21.154 3.66547 21.1879 3.53645 21.2256 3.42641C21.2858 3.24806 21.331 3.06592 21.3875 2.88758C21.3988 2.85722 21.4289 2.82307 21.4515 2.79651C21.4741 2.75856 21.5005 2.72441 21.5231 2.68646C21.5344 2.67128 21.5344 2.6637 21.5344 2.64852C21.5419 2.62575 21.5532 2.60678 21.5645 2.58401C21.5833 2.54986 21.5984 2.51571 21.6285 2.48535C21.6474 2.46258 21.6737 2.4512 21.6925 2.42843C21.7227 2.39428 21.7528 2.35254 21.8055 2.35254C21.8281 2.35254 21.8507 2.35254 21.8696 2.35254C21.8921 2.35254 21.9185 2.35254 21.9449 2.35254C21.9599 2.35254 21.9788 2.35254 21.9938 2.36392C22.0014 2.37151 22.0089 2.3791 22.0202 2.38669C22.0503 2.40946 22.0805 2.42843 22.1143 2.44361C22.1671 2.47017 22.2047 2.50812 22.2386 2.54986C22.2763 2.59539 22.3139 2.64093 22.3554 2.67887C22.3968 2.72061 22.4571 2.74718 22.506 2.78892V2.78512Z" fill="white"/>
<path d="M22.9692 4.98976C22.9316 4.73173 22.7583 4.48508 22.5437 4.35986C22.3139 4.22705 21.9901 4.34089 21.7453 4.35986C21.5268 4.37504 21.2858 4.4016 21.1013 4.53821C21.0297 4.59133 20.9506 4.67102 20.8753 4.77727C20.7171 4.98597 20.6343 5.16431 20.623 5.30851C20.6154 5.51341 20.7096 5.65381 20.8113 5.81698C20.8941 5.94979 20.9393 6.09399 21.0937 6.15849C21.3084 6.24956 21.5193 6.19265 21.7377 6.16988C21.9825 6.14332 22.1972 6.10916 22.4156 5.97635C22.6604 5.82457 22.845 5.57413 22.9429 5.29333C22.973 5.19846 22.9805 5.09601 22.9655 4.99356L22.9692 4.98976Z" fill="#0055A2"/>
<path d="M23.8918 4.6143L23.5717 4.269L23.3533 4.0565C23.3533 4.0565 22.57 3.15718 22.3026 2.86121L21.9975 2.45518C21.9373 2.35273 21.877 2.25787 21.7828 2.25028C21.6849 2.24269 21.6209 2.31858 21.5155 2.4438L21.2782 2.70942C21.1652 2.82705 20.3216 3.41142 20.0354 3.58977C19.704 3.79467 19.5232 3.91989 19.463 4.04891L19.2069 4.44355L18.7775 5.11519C18.7474 5.16452 18.6947 5.27836 19.06 6.1625C19.1692 6.42432 19.2897 6.5799 19.4253 6.64061L20.1295 6.92141L20.2463 6.96695C20.5551 7.08837 20.7246 7.11114 21.0221 7.09217L22.1218 6.95936C22.3214 6.92521 22.3817 6.91003 22.7055 6.66338C22.8788 6.53436 23.101 6.41673 23.3119 6.34843C23.7977 6.18147 23.8843 5.88549 24.0086 5.47188L24.0312 5.39978C24.0538 5.32769 24.0651 5.25179 24.0651 5.17211C24.0651 4.98617 24.0011 4.79265 23.8881 4.6181M22.472 5.25179C22.3779 5.4605 22.2837 5.55536 22.0465 5.69956C21.7791 5.85893 21.5079 5.92344 21.2292 5.8817C21.1238 5.8817 20.9957 5.85134 20.8451 5.79821C20.6643 5.74509 20.5551 5.68817 20.5175 5.62746C20.3216 5.41876 20.235 5.22144 20.2501 5.03171C20.2576 4.88751 20.3404 4.70537 20.4986 4.50047C20.5777 4.39422 20.6568 4.31453 20.7284 4.26141C20.928 4.11721 21.2443 4.06409 21.5456 4.10204C21.9862 4.15895 22.8373 4.72435 22.472 5.25559V5.25179Z" fill="#D6C560"/>
<path d="M15.8023 15.1898C15.8701 15.0797 16.0132 15.0266 16.1375 15.0228C16.2317 15.0228 16.322 15.0418 16.4162 15.0304C16.5141 15.019 16.6083 15 16.7024 14.9848C16.8982 14.9507 17.0828 14.8558 17.2711 14.9507C17.369 15.0038 17.4142 15.1101 17.4406 15.2163C17.4782 15.3795 17.6176 15.573 17.6364 15.74C17.6628 15.9031 17.7644 16.1726 17.9226 16.1763C18.2955 16.1763 18.6984 16.1574 19.0675 16.1043C19.2935 16.0739 19.4818 15.9904 19.719 15.9714C20.0919 15.9449 20.4459 15.888 20.8187 15.8993C21.2217 15.9107 21.6359 15.7703 22.0389 15.7514C22.118 15.7514 22.5586 15.7893 22.585 15.6793C22.649 15.4364 22.8147 15.2353 22.8562 14.9848C22.8787 14.852 22.8486 14.6661 22.9465 14.5599C23.1047 14.3815 23.3005 14.5333 23.4738 14.6054C23.6621 14.6851 23.8768 14.7837 24.0839 14.8824C24.2873 14.9773 24.6714 15.0304 24.8333 15.1252C25.0744 15.2619 25.1911 15.3643 25.1647 15.4706C25.1309 15.6072 25.0631 15.9563 25.0066 16.1991C24.9614 16.3888 24.9501 16.6051 24.8898 16.7835C24.7957 17.0643 24.871 17.0719 24.6413 17.2199C24.3475 17.4134 24.2044 17.3147 23.76 17.3527C23.5566 17.3678 23.1386 17.4551 22.8712 17.4779C22.6415 17.4931 22.3967 17.512 22.1406 17.531C21.9033 17.55 21.6623 17.531 21.41 17.55C21.169 17.569 20.8903 17.5007 20.6492 17.5196C20.412 17.5386 20.1672 17.5386 19.9337 17.5538C19.7002 17.569 19.4705 17.5803 19.2483 17.5955C19.0072 17.6107 18.77 17.698 18.5553 17.7132C18.2842 17.7283 18.0469 17.7397 17.8435 17.7435C17.5724 17.7511 17.1845 17.9029 16.9472 17.698C16.7702 17.5424 16.7212 17.2844 16.6007 17.0908C16.4049 16.7683 16.2053 16.4496 16.0358 16.1156C15.9454 15.9335 15.8814 15.7362 15.8023 15.5464C15.7534 15.4174 15.7383 15.3036 15.8023 15.2049V15.1898Z" fill="#D6C560"/>
<path d="M16.9284 8.12051C16.8682 7.88145 16.3258 8.12809 15.9756 8.18501C15.7647 8.21916 15.4709 8.34439 15.2676 8.36715C14.8119 8.41648 14.8721 8.57586 14.9625 8.84527C15.0002 8.95531 15.1282 9.1792 15.1847 9.48276C15.2224 9.67629 15.3617 10.5756 15.4107 10.7995C15.4559 11.0234 15.3919 11.2662 15.4446 11.4749C15.5011 11.6988 15.6442 12.0745 15.7044 12.2452C15.8099 12.5526 15.7835 12.5564 15.8814 12.5943C16.1978 12.7006 16.5367 12.6171 16.9435 12.6588C17.1544 12.6778 17.3577 12.7954 17.6327 12.822C17.8624 12.8448 18.7022 12.8827 18.947 12.9055C19.1805 12.932 19.4215 12.9358 19.6701 12.9586C19.9036 12.9814 20.1522 12.9055 20.3932 12.932C20.6417 12.9586 20.8903 12.9814 21.1426 13.0079C21.3874 13.0345 21.6322 13.0383 21.8732 13.0649C22.1105 13.0876 22.3327 13.2204 22.5587 13.2432C22.8035 13.2698 23.052 13.1901 23.2818 13.2166C23.5303 13.2432 24.4944 13.3419 24.7129 13.3646C24.9727 13.3912 25.1987 13.4557 25.3907 13.4747C25.7297 13.505 25.9481 13.4633 26.0046 13.4633C26.4189 13.4633 26.4377 13.395 26.4339 13.0117C26.4339 12.9131 26.3172 12.6778 26.336 12.3477C26.3511 12.1466 26.4791 11.9379 26.4942 11.7026C26.5093 11.4825 26.5055 11.2586 26.5206 11.0385C26.5432 10.7881 26.5206 10.5604 26.5356 10.3593C26.562 9.98744 26.7352 9.58142 26.5507 9.56245C26.5055 9.56245 26.3549 9.54727 26.031 9.42584C25.8615 9.35754 25.5565 9.33857 25.3719 9.28544C25.1686 9.22852 24.984 9.08813 24.8296 9.08433C24.6714 9.08433 24.7091 9.40687 24.6903 9.71803C24.679 9.90017 24.7016 10.716 24.7091 10.9095C24.7166 11.1182 24.6978 11.2245 24.6903 11.3952C24.679 11.6684 24.581 11.6305 24.4756 11.6609C24.4003 11.6836 24.1141 11.7178 23.7299 11.7026C23.5152 11.695 22.5022 11.6609 22.2386 11.6419C22.0013 11.6267 21.7565 11.5508 21.5079 11.5318C21.2631 11.5129 20.9958 11.6039 20.751 11.585C20.5062 11.5622 20.284 11.5774 20.0505 11.5584C19.7906 11.5356 19.5458 11.4863 19.3161 11.4484C19.0374 11.4028 18.6156 11.4673 18.3369 11.3231C18.2164 11.2624 17.8097 11.2283 17.7871 11.2245C17.4707 11.1714 17.6025 10.8185 17.3954 10.2948C17.2711 9.96088 17.4255 9.80151 17.2975 9.47138C17.1657 9.13366 17.1732 9.15263 17.0565 8.80733C16.9548 8.51135 16.9924 8.36336 16.9322 8.11671L16.9284 8.12051Z" fill="#D6C560"/>
<path d="M22.1594 8.36318C22.1632 8.3442 22.1707 8.32143 22.1783 8.29867C22.2348 8.07858 21.9636 8.10894 21.8092 8.08238C21.6623 8.05961 21.5305 8.03305 21.3799 8.02925C21.2179 8.02925 21.0974 7.94956 20.943 7.93439C20.7547 7.91921 20.5626 7.93439 20.3743 7.93059C20.2952 7.93059 20.2162 7.91541 20.1672 7.98372C20.1295 8.04443 20.1408 8.16965 20.1258 8.23795C20.0467 8.57567 20.1069 9.38771 20.0279 9.72543C19.9525 10.0328 19.8508 10.2225 19.7793 10.5299C19.704 10.841 19.8282 11.2926 19.7755 11.5924C19.7153 11.9301 19.7002 11.9187 19.6588 12.2564C19.6136 12.5865 19.3952 12.56 19.3537 12.8939C19.3123 13.2316 19.4027 13.2544 19.3537 13.5921C19.3085 13.926 19.2822 13.9222 19.2332 14.2524C19.1918 14.5825 19.124 15.2503 19.0788 15.5919C19.0336 15.9258 18.9056 15.8992 18.8604 16.2369C18.8152 16.5709 19.0298 16.5974 18.9884 16.9313C18.947 17.2653 18.6683 17.8952 18.6269 18.2139C18.5817 18.582 18.5516 18.9083 18.5854 19.2726C18.6457 19.9063 18.2955 20.2326 18.2277 20.7677C18.1825 21.0826 18.431 21.1168 18.3896 21.4317C18.3482 21.7429 18.0431 21.7922 18.2955 22.0085C18.6005 22.2665 18.6645 22.1679 19.0713 22.1717C19.429 22.1755 19.9676 22.2893 20.235 22.0806C20.5024 21.8681 20.2877 21.629 20.3367 21.3027C20.3856 20.9688 20.363 20.9916 20.412 20.6614C20.4647 20.3313 20.3743 20.3199 20.4271 19.9898C20.4722 19.6672 20.6493 19.0222 20.702 18.6845C20.7547 18.3543 20.6831 18.3581 20.7321 18.0242C20.7811 17.6941 20.7434 17.6713 20.7924 17.3374C20.8413 16.9997 20.6681 17.1249 20.7208 16.791C20.7698 16.4684 20.766 16.4684 20.815 16.1459C20.8639 15.8157 20.7698 15.7968 20.8187 15.4666C20.8677 15.1479 21.1238 13.9943 21.1727 13.6756C21.2179 13.3872 21.2217 13.224 21.2744 12.9357C21.3309 12.5979 21.2819 12.6473 21.346 12.3095C21.4138 11.9642 21.4138 12.0439 21.4815 11.7024C21.5456 11.3723 21.5983 11.3267 21.6623 11.0004C21.7301 10.6627 21.6661 10.6247 21.7301 10.287C21.7941 9.95311 21.8431 10.0328 21.9071 9.69507C21.9674 9.38012 22.0201 9.05758 22.0804 8.73884C22.1067 8.60603 22.1293 8.47701 22.1594 8.348V8.36318Z" fill="#D6C560"/>
<path d="M6.71875 21.1093C6.52292 19.4018 6.44383 18.4949 6.16137 16.571C6.13125 16.3737 6.01826 13.8427 5.95424 13.3001C5.82996 12.3287 5.55504 11.2662 5.42699 10.4352L5.43452 10.3782C5.52868 9.9191 5.51361 7.17182 5.51361 7.17182V6.485L5.29141 4.74708L5.18973 4.42454V4.1058L5.00896 1.35852C5.00896 1.03977 4.88091 0.880398 4.7265 0.800712C4.7265 0.785534 4.7265 0.770355 4.7265 0.755177C4.66625 0.747588 4.59846 0.747588 4.5382 0.739999C4.49301 0.732409 4.45158 0.728615 4.41016 0.728615C3.78876 0.690669 3.17865 0.421253 2.57608 0.356745C2.35012 0.333978 1.18264 0.474378 1.16005 0.474378C0.662925 0.474378 0.263723 0.834863 0.222296 1.00183C0.173337 1.21812 -0.022498 2.01498 9.83297e-05 2.22368C0.0302268 2.51587 0.659159 4.63704 0.670457 5.02788C0.708118 6.02206 0.783439 6.37496 0.775907 7.22495C0.775907 7.29325 1.06589 9.37648 1.06966 9.44478C1.10732 10.8222 1.6195 13.1369 2.0413 16.0815C2.10909 16.5672 2.13545 17.588 2.28986 19.1058C2.31246 19.3373 2.4518 21.6747 2.47817 21.891C2.60245 22.8017 2.73049 23.1394 2.83971 24.3385C2.94516 24.6231 3.7398 24.7521 4.18043 24.6952C4.55703 24.6459 5.32531 24.8622 5.73204 24.847C6.0145 24.8356 6.1802 24.3234 6.48526 24.3385C6.46266 23.1356 6.8468 22.2743 6.71499 21.1093H6.71875Z" fill="#D0C8BA"/>
<path d="M31.9023 27.3552C31.9249 26.9492 31.9249 26.8353 31.9287 26.7063C31.9324 26.5925 32.0529 26.0537 31.3863 26.103C31.1227 26.122 28.543 26.3041 28.2116 26.2965C27.9103 26.2851 24.9012 26.0954 24.5585 26.0878C24.2308 26.0802 23.0106 26.2472 22.6754 26.2434C22.3553 26.2358 19.689 26.1371 19.35 26.1333C19.0186 26.1258 18.6797 26.2624 18.3482 26.2548C17.998 26.2472 17.6515 26.0916 17.3013 26.0878C16.9623 26.084 15.7233 26.2851 15.3843 26.2775C15.0529 26.2737 13.6444 26.1713 13.2979 26.1713C12.9552 26.1675 10.7069 26.0423 9.97628 26.0309C9.33605 26.0233 8.6318 26.0992 7.99157 26.1144C7.80326 26.122 6.17256 25.8488 5.75829 25.9322C5.50973 25.9816 5.26117 26.0043 5.02391 26.0195L4.53432 25.9854L3.94305 25.8943C3.94305 25.8943 3.8602 25.9588 3.75475 26.0461C3.59657 26.0575 3.48736 26.0764 3.44593 26.1258C3.39697 26.1789 3.39321 26.2851 3.40827 26.4255C3.40827 26.4331 3.40074 26.4407 3.39697 26.4445L3.53255 28.1824L3.54761 28.2204C3.59657 28.6302 3.72462 29.3132 3.88279 29.3132C3.99954 29.3132 4.11252 29.3284 4.21797 29.3512C4.42887 29.5105 4.74522 29.6889 5.16702 29.7837C5.2913 29.8482 5.40428 29.8976 5.5022 29.8976C5.78842 29.89 7.75054 30.0076 8.08195 30C8.40207 29.9886 9.80681 29.7192 10.1571 29.7078C11.9798 29.6585 12.7782 29.8482 13.1473 29.7875C14.1077 29.632 18.7022 30.0114 18.9056 29.9697C19.1768 29.9203 21.1615 29.852 21.523 29.8445C21.8469 29.8407 22.8939 29.6623 23.2479 29.6547C23.8015 29.6433 24.3513 29.7572 25.1271 29.8407C26.5319 29.9962 27.3039 29.8862 29.1116 29.8748C29.5071 29.871 30.7084 29.9659 30.957 29.8672C31.3863 29.6965 32.1509 28.0762 32.2299 27.6588C32.2751 27.3894 31.8872 27.6246 31.9023 27.359V27.3552Z" fill="#D0C8BA"/>
</g>
<path d="M81.9951 8.35705L76.9865 13.9112L78.5785 15.4649L83.4887 10.0131L88.4079 15.4649L89.991 13.9112L84.9824 8.35705L85.0182 8.32914H91.109V6.05908H75.8237V8.32914H81.9683L81.9951 8.35705Z" fill="#231815"/>
<path d="M91.5027 17.2981H75.4392V19.5682H82.2456V23.1686H84.5889V19.5682H91.5027V17.2981Z" fill="#231815"/>
<path d="M51.1026 15.4374H53.6517V6.09668H42.8384V8.47838H51.1026V15.4374Z" fill="#231815"/>
<path d="M57.7396 5.25V7.1107H54.761V9.38075H57.7396V11.3903H54.761V13.6511H57.7396V15.4373H59.9132V5.25H57.7396Z" fill="#231815"/>
<path d="M53.9554 16.5815C51.6121 16.5815 49.707 18.405 49.707 20.6658C49.707 22.9265 51.6121 24.75 53.9554 24.75C56.2988 24.75 58.2038 22.9172 58.2038 20.6658C58.2038 18.4143 56.2988 16.5815 53.9554 16.5815ZM53.9733 22.6009C52.909 22.6009 52.0504 21.7729 52.0504 20.7495C52.0504 19.7261 52.909 18.8981 53.9733 18.8981C55.0377 18.8981 55.8963 19.7261 55.8963 20.7495C55.8963 21.7729 55.0377 22.6009 53.9733 22.6009Z" fill="#231815"/>
<path d="M121 5.99438H118.656V23.1128H121V5.99438Z" fill="#231815"/>
<path d="M109.176 6.0874L104.776 20.052L106.877 20.6474L110.097 10.4507L113.317 20.6474L115.419 20.052L111.01 6.0874H109.176Z" fill="#231815"/>
<path d="M394.832 7.70011L400.618 16.3817L397.712 18.118L392.836 10.6565L388.009 18.118L385.078 16.3817L390.915 7.70011H386.039V5.04872H399.708V7.70011H394.832ZM402.665 4.27441H406V24.4297H402.665V4.27441Z" fill="#231815"/>
<path d="M376.129 4.27441H379.464V24.4063H376.129V17.7426H361.448C360.875 17.7426 360.421 17.6174 360.084 17.3672C359.747 17.1012 359.578 16.7415 359.578 16.2878V10.0465H368.397V7.67665H359.578V5.04872H371.732V12.6979H362.914V15.1146H376.129V4.27441Z" fill="#231815"/>
<path d="M339.486 21.004V21.9426H353.004V24.4063H337.768C336.689 24.4063 336.15 23.9526 336.15 23.0454V18.6107H349.542V17.6722H336.15V15.2085H349.542V4.27441H352.878V21.004H339.486ZM341.861 9.27218H336.327V11.4308H341.861V9.27218ZM345.196 14.0353H334.71C333.565 14.0353 332.992 13.5191 332.992 12.4867V4.72022H336.327V6.69117H341.861V4.72022H345.196V14.0353Z" fill="#231815"/>
<path d="M323.006 12.3225H319.62L320.808 13.918L318.155 15.7716L313.101 8.77944L307.997 15.7716L305.344 13.918L312.04 4.97832C312.242 4.74369 312.419 4.57944 312.571 4.48559C312.739 4.39173 312.916 4.34481 313.101 4.34481C313.421 4.34481 313.767 4.55598 314.137 4.97832L318.938 11.4074V9.78838H323.006V8.49788H318.938V5.9638H323.006V4.27441H326.341V24.4063H311.206C310.667 24.4063 310.271 24.3046 310.019 24.1012C309.766 23.8979 309.64 23.5537 309.64 23.0688V16.8275H312.975V21.7783H323.006V12.3225Z" fill="#231815"/>
<path d="M286.136 13.9649C286.641 13.9649 287.113 13.8789 287.551 13.7068C288.005 13.5191 288.401 13.2766 288.738 12.9794C289.075 12.6666 289.336 12.3068 289.521 11.9001C289.724 11.4934 289.825 11.0554 289.825 10.5861C289.825 10.1012 289.724 9.65542 289.521 9.24872C289.336 8.82637 289.075 8.46659 288.738 8.16939C288.418 7.85654 288.031 7.61408 287.576 7.44201C287.121 7.26994 286.641 7.18391 286.136 7.18391C285.63 7.18391 285.158 7.27777 284.721 7.46548C284.283 7.63754 283.904 7.88 283.583 8.19285C283.263 8.49006 283.011 8.84983 282.825 9.27218C282.657 9.67888 282.573 10.1169 282.573 10.5861C282.573 11.0398 282.657 11.4778 282.825 11.9001C283.011 12.3068 283.255 12.6666 283.558 12.9794C283.878 13.2766 284.257 13.5191 284.695 13.7068C285.133 13.8789 285.613 13.9649 286.136 13.9649ZM286.136 4.53251C287.163 4.53251 288.098 4.68894 288.94 5.00179C289.799 5.31464 290.532 5.74481 291.139 6.29229C291.762 6.82413 292.242 7.46548 292.579 8.21631C292.916 8.95151 293.084 9.74145 293.084 10.5861C293.084 11.4152 292.916 12.1973 292.579 12.9325C292.242 13.6521 291.762 14.2856 291.139 14.8331C290.532 15.3649 289.799 15.7873 288.94 16.1001C288.098 16.413 287.163 16.5694 286.136 16.5694C285.125 16.5694 284.198 16.4208 283.356 16.1236C282.514 15.8107 281.789 15.3884 281.183 14.8565C280.593 14.3091 280.13 13.6755 279.793 12.956C279.473 12.2208 279.313 11.4308 279.313 10.5861C279.313 9.72581 279.473 8.92805 279.793 8.19285C280.13 7.44201 280.593 6.80067 281.183 6.26883C281.789 5.72134 282.514 5.299 283.356 5.00179C284.198 4.68894 285.125 4.53251 286.136 4.53251ZM299.755 4.27441V24.4063H296.419V4.27441H299.755Z" fill="#231815"/>
<path d="M265.537 4.27441H268.797V24.4063H265.537V11.8532H262.985V17.7191H259.65V12.7683H252.878V10.1403H259.65V7.70011H252.221V5.04872H261.393C261.949 5.04872 262.353 5.15039 262.606 5.35374C262.859 5.5571 262.985 5.94816 262.985 6.52693V9.20179H265.537V4.27441ZM270.313 4.27441H273.648V24.4063H270.313V4.27441Z" fill="#231815"/>
<path d="M233.77 11.5245C234.175 11.5245 234.562 11.4697 234.933 11.3602C235.303 11.2508 235.623 11.0943 235.893 10.891C236.179 10.672 236.407 10.4139 236.575 10.1167C236.743 9.80382 236.828 9.45969 236.828 9.08427C236.828 8.70885 236.743 8.37254 236.575 8.07533C236.407 7.76248 236.179 7.50438 235.893 7.30103C235.623 7.08204 235.303 6.91779 234.933 6.80829C234.562 6.68315 234.175 6.62058 233.77 6.62058C233.366 6.62058 232.979 6.68315 232.608 6.80829C232.254 6.93343 231.943 7.1055 231.673 7.32449C231.404 7.54349 231.185 7.80159 231.016 8.09879C230.864 8.396 230.789 8.72449 230.789 9.08427C230.789 9.44405 230.864 9.77254 231.016 10.0697C231.185 10.367 231.404 10.6251 231.673 10.844C231.943 11.0474 232.254 11.2116 232.608 11.3368C232.979 11.4619 233.366 11.5245 233.77 11.5245ZM233.77 4.01611C234.68 4.01611 235.514 4.14125 236.272 4.39153C237.047 4.64181 237.712 4.99377 238.268 5.4474C238.841 5.88539 239.279 6.41723 239.582 7.04293C239.902 7.65298 240.062 8.33343 240.062 9.08427C240.062 9.80382 239.902 10.4686 239.582 11.0787C239.279 11.6887 238.849 12.2206 238.293 12.6742C237.737 13.1122 237.072 13.4642 236.297 13.7301C235.522 13.9804 234.68 14.1055 233.77 14.1055C232.877 14.1055 232.052 13.9804 231.294 13.7301C230.536 13.4642 229.879 13.1122 229.323 12.6742C228.767 12.2206 228.329 11.6887 228.009 11.0787C227.706 10.453 227.554 9.78818 227.554 9.08427C227.554 8.33343 227.706 7.65298 228.009 7.04293C228.329 6.41723 228.759 5.88539 229.298 5.4474C229.854 4.99377 230.511 4.64181 231.269 4.39153C232.027 4.14125 232.861 4.01611 233.77 4.01611ZM242.285 17.2262H235.716V24.0776H232.406V17.2262H226.443V14.6452H242.285V17.2262ZM243.271 4.27421H246.632V24.4061H243.271V20.5815H237.889V18.0943H243.271V4.27421Z" fill="#231815"/>
<path d="M196.895 8.68559L191.816 15.2085L188.986 13.1437L195.733 5.07218C195.85 4.9314 195.977 4.79844 196.112 4.6733C196.229 4.57944 196.347 4.49341 196.465 4.4152C196.6 4.32134 196.735 4.27441 196.87 4.27441C197.072 4.27441 197.274 4.35263 197.476 4.50905C197.678 4.64983 197.88 4.83754 198.082 5.07218L204.93 13.1437L202.125 15.2085L196.895 8.68559ZM209.832 8.31017H212.889V11.0085H209.832V24.5001H194.343C194.023 24.5001 193.728 24.3672 193.458 24.1012C193.206 23.8353 193.079 23.4834 193.079 23.0454V17.0856H196.44V21.8722H206.421V4.27441H209.832V8.31017Z" fill="#231815"/>
<path d="M183.245 8.05196H186.404V10.6799H183.245V24.4061H168.135C167.596 24.4061 167.192 24.2732 166.922 24.0073C166.67 23.7413 166.543 23.405 166.543 22.9983V16.1939H179.91V4.2743H183.245V8.05196ZM163.157 7.74693V5.18939H168.236V3.5H171.572V5.18939H176.751V7.74693H175.033C175.589 8.52905 175.867 9.39721 175.867 10.3514C175.867 10.9927 175.716 11.6106 175.412 12.205C175.126 12.7838 174.713 13.3 174.174 13.7536C173.652 14.2073 173.02 14.5749 172.279 14.8564C171.555 15.1223 170.755 15.2553 169.879 15.2553C169.02 15.2553 168.228 15.1223 167.504 14.8564C166.779 14.5749 166.156 14.2073 165.634 13.7536C165.112 13.3 164.699 12.7838 164.396 12.205C164.109 11.6106 163.966 10.9927 163.966 10.3514C163.966 9.39721 164.244 8.52905 164.8 7.74693H163.157ZM179.91 18.8218H169.879V21.7782H179.91V18.8218ZM169.879 12.8385C170.687 12.8385 171.361 12.6039 171.9 12.1346C172.439 11.6497 172.709 11.0553 172.709 10.3514C172.709 9.99162 172.633 9.65531 172.481 9.34246C172.346 9.02961 172.153 8.76369 171.9 8.54469C171.647 8.31006 171.344 8.13017 170.99 8.00503C170.654 7.87989 170.283 7.81732 169.879 7.81732C169.491 7.81732 169.129 7.87989 168.792 8.00503C168.472 8.13017 168.186 8.31006 167.933 8.54469C167.68 8.76369 167.478 9.02961 167.327 9.34246C167.192 9.63967 167.125 9.97598 167.125 10.3514C167.125 11.0553 167.377 11.6497 167.883 12.1346C168.405 12.6039 169.07 12.8385 169.879 12.8385Z" fill="#231815"/>
<path d="M140.26 16.9212C139.653 16.9212 139.19 16.7804 138.87 16.4989C138.567 16.2016 138.415 15.8262 138.415 15.3726V4.8374H156.128V7.46534H141.751V9.50668H156.052V12.1815H141.751V14.2933H156.254V16.9212H148.901V20.3H157.467V22.9279H137V20.3H145.566V16.9212H140.26Z" fill="#231815"/>
<defs>
<clipPath id="clip0_752_5874">
<rect width="34" height="30" fill="white"/>
</clipPath>
</defs>
</svg>
